<svg width="242" height="49" viewBox="0 0 242 49" fill="none" xmlns="http://www.w3.org/2000/svg">
<path d="M35.0133 15.1413C33.936 13.1662 32.4547 11.6624 30.5693 10.6299C28.684 9.59749 26.4844 9.08126 23.9707 9.08126C21.1876 9.08126 18.7187 9.70971 16.564 10.9666C14.4093 12.2235 12.726 14.019 11.514 16.3533C10.302 18.6875 9.696 21.3808 9.696 24.4333C9.696 27.5755 10.302 30.3137 11.514 32.6479C12.7709 34.9821 14.4991 36.7777 16.6987 38.0346C18.8982 39.2915 21.4569 39.9199 24.3747 39.9199C27.9658 39.9199 30.906 38.9773 33.1953 37.0919C35.4847 35.1617 36.9884 32.4908 37.7067 29.0793H21.5467V21.8746H46.9987V30.0893C46.3702 33.3661 45.0236 36.3961 42.9587 39.1793C40.8938 41.9624 38.2229 44.2068 34.946 45.9126C31.714 47.5735 28.078 48.4039 24.038 48.4039C19.5042 48.4039 15.3969 47.3939 11.716 45.3739C8.08 43.309 5.20711 40.4586 3.09733 36.8226C1.03244 33.1866 0 29.0568 0 24.4333C0 19.8097 1.03244 15.6799 3.09733 12.0439C5.20711 8.36304 8.08 5.5126 11.716 3.4926C15.3969 1.42771 19.4818 0.395264 23.9707 0.395264C29.2676 0.395264 33.8687 1.69704 37.774 4.30059C41.6793 6.85926 44.3727 10.4728 45.854 15.1413H35.0133Z" fill="black"/>
<path d="M81.5796 47.9999L71.2103 29.6853H66.7663V47.9999H57.3396V1.00126H74.9809C78.6169 1.00126 81.7143 1.65215 84.2729 2.95393C86.8316 4.21082 88.7394 5.93904 89.9963 8.1386C91.298 10.2933 91.9489 12.7173 91.9489 15.4106C91.9489 18.5079 91.0511 21.3135 89.2556 23.8273C87.46 26.2962 84.7891 28.0019 81.2429 28.9446L92.4876 47.9999H81.5796ZM66.7663 22.6153H74.6443C77.2029 22.6153 79.1107 22.0093 80.3676 20.7973C81.6245 19.5404 82.2529 17.8122 82.2529 15.6126C82.2529 13.4579 81.6245 11.797 80.3676 10.6299C79.1107 9.41793 77.2029 8.81193 74.6443 8.81193H66.7663V22.6153Z" fill="black"/>
<path d="M113.134 1.00126V30.0893C113.134 33.2764 113.964 35.7228 115.625 37.4286C117.286 39.0895 119.62 39.9199 122.628 39.9199C125.68 39.9199 128.037 39.0895 129.698 37.4286C131.359 35.7228 132.189 33.2764 132.189 30.0893V1.00126H141.683V30.0219C141.683 34.017 140.808 37.4062 139.057 40.1893C137.351 42.9275 135.039 44.9924 132.122 46.3839C129.249 47.7755 126.039 48.4713 122.493 48.4713C118.992 48.4713 115.805 47.7755 112.932 46.3839C110.104 44.9924 107.859 42.9275 106.198 40.1893C104.537 37.4062 103.707 34.017 103.707 30.0219V1.00126H113.134Z" fill="black"/>
<path d="M180.822 23.8946C183.47 24.3884 185.647 25.7126 187.353 27.8673C189.059 30.0219 189.912 32.4908 189.912 35.2739C189.912 37.7877 189.283 40.0097 188.026 41.9399C186.814 43.8253 185.041 45.3066 182.707 46.3839C180.373 47.4613 177.612 47.9999 174.425 47.9999H154.158V1.00126H173.55C176.737 1.00126 179.475 1.51749 181.764 2.54993C184.098 3.58238 185.849 5.01882 187.016 6.85926C188.228 8.69971 188.834 10.787 188.834 13.1213C188.834 15.8595 188.094 18.1488 186.612 19.9893C185.176 21.8297 183.246 23.1315 180.822 23.8946ZM163.584 20.3933H172.203C174.447 20.3933 176.176 19.8995 177.388 18.9119C178.6 17.8795 179.206 16.4206 179.206 14.5353C179.206 12.6499 178.6 11.191 177.388 10.1586C176.176 9.12615 174.447 8.60993 172.203 8.60993H163.584V20.3933ZM173.078 40.3239C175.368 40.3239 177.141 39.7853 178.398 38.7079C179.699 37.6306 180.35 36.1044 180.35 34.1293C180.35 32.1093 179.677 30.5382 178.33 29.4159C176.984 28.2488 175.166 27.6653 172.876 27.6653H163.584V40.3239H173.078Z" fill="black"/>
<path d="M206.245 0.933927V47.9999H201.532V0.933927H206.245Z" fill="black"/>
<path d="M241.091 0.933927V4.83926H228.029V47.9999H223.315V4.83926H210.185V0.933927H241.091Z" fill="black"/>
<path d="M41.6566 14.746C40.5793 12.7709 39.098 11.2671 37.2126 10.2347C35.3273 9.20222 33.1278 8.686 30.614 8.686C27.8309 8.686 25.362 9.31444 23.2073 10.5713C21.0526 11.8282 19.3693 13.6238 18.1573 15.958C16.9453 18.2922 16.3393 20.9856 16.3393 24.038C16.3393 27.1802 16.9453 29.9184 18.1573 32.2527C19.4142 34.5869 21.1424 36.3824 23.342 37.6393C25.5415 38.8962 28.1002 39.5247 31.018 39.5247C34.6091 39.5247 37.5493 38.582 39.8386 36.6967C42.128 34.7664 43.6318 32.0956 44.35 28.684H28.19V21.4793H53.642V29.694C53.0135 32.9709 51.6669 36.0009 49.602 38.784C47.5371 41.5671 44.8662 43.8116 41.5893 45.5173C38.3573 47.1782 34.7213 48.0087 30.6813 48.0087C26.1475 48.0087 22.0402 46.9987 18.3593 44.9787C14.7233 42.9138 11.8504 40.0633 9.74064 36.4273C7.67576 32.7913 6.64331 28.6616 6.64331 24.038C6.64331 19.4144 7.67576 15.2847 9.74064 11.6487C11.8504 7.96778 14.7233 5.11733 18.3593 3.09733C22.0402 1.03244 26.1251 0 30.614 0C35.9109 0 40.512 1.30178 44.4173 3.90533C48.3226 6.464 51.016 10.0776 52.4973 14.746H41.6566Z" fill="#FE724D"/>
<path d="M88.2229 47.6047L77.8536 29.29H73.4096V47.6047H63.9829V0.606H81.6242C85.2602 0.606 88.3576 1.25689 90.9162 2.55867C93.4749 3.81555 95.3827 5.54378 96.6396 7.74333C97.9413 9.898 98.5922 12.322 98.5922 15.0153C98.5922 18.1127 97.6945 20.9182 95.8989 23.432C94.1033 25.9009 91.4324 27.6067 87.8862 28.5493L99.1309 47.6047H88.2229ZM73.4096 22.22H81.2876C83.8462 22.22 85.754 21.614 87.0109 20.402C88.2678 19.1451 88.8962 17.4169 88.8962 15.2173C88.8962 13.0627 88.2678 11.4018 87.0109 10.2347C85.754 9.02267 83.8462 8.41667 81.2876 8.41667H73.4096V22.22Z" fill="#FE724D"/>
<path d="M119.777 0.606V29.694C119.777 32.8811 120.607 35.3276 122.268 37.0333C123.929 38.6942 126.263 39.5247 129.271 39.5247C132.323 39.5247 134.68 38.6942 136.341 37.0333C138.002 35.3276 138.832 32.8811 138.832 29.694V0.606H148.326V29.6267C148.326 33.6218 147.451 37.0109 145.7 39.794C143.995 42.5322 141.683 44.5971 138.765 45.9887C135.892 47.3802 132.683 48.076 129.136 48.076C125.635 48.076 122.448 47.3802 119.575 45.9887C116.747 44.5971 114.503 42.5322 112.842 39.794C111.181 37.0109 110.35 33.6218 110.35 29.6267V0.606H119.777Z" fill="#FE724D"/>
<path d="M187.465 23.4993C190.113 23.9931 192.29 25.3173 193.996 27.472C195.702 29.6267 196.555 32.0956 196.555 34.8787C196.555 37.3924 195.926 39.6144 194.67 41.5447C193.458 43.43 191.684 44.9113 189.35 45.9887C187.016 47.066 184.255 47.6047 181.068 47.6047H160.801V0.606H180.193C183.38 0.606 186.118 1.12222 188.408 2.15467C190.742 3.18711 192.492 4.62356 193.66 6.464C194.872 8.30444 195.478 10.3918 195.478 12.726C195.478 15.4642 194.737 17.7536 193.256 19.594C191.819 21.4344 189.889 22.7362 187.465 23.4993ZM170.228 19.998H178.846C181.091 19.998 182.819 19.5042 184.031 18.5167C185.243 17.4842 185.849 16.0253 185.849 14.14C185.849 12.2547 185.243 10.7958 184.031 9.76333C182.819 8.73089 181.091 8.21466 178.846 8.21466H170.228V19.998ZM179.722 39.9287C182.011 39.9287 183.784 39.39 185.041 38.3127C186.343 37.2353 186.994 35.7091 186.994 33.734C186.994 31.714 186.32 30.1429 184.974 29.0207C183.627 27.8536 181.809 27.27 179.52 27.27H170.228V39.9287H179.722Z" fill="#FE724D"/>
</svg>
