<svg width="750" height="430" viewBox="0 0 750 430" fill="none" xmlns="http://www.w3.org/2000/svg">
<g filter="url(#filter0_d_82_4421)">
<rect x="15" y="10" width="720" height="400" rx="8" fill="#D7D7D7"/>
<path d="M95.713 147.908L87.541 163.532V173H84.265V163.532L76.057 147.908H79.693L85.885 160.616L92.077 147.908H95.713ZM107.772 173.324C105.924 173.324 104.244 172.904 102.732 172.064C101.244 171.224 100.068 170.036 99.2045 168.5C98.3645 166.94 97.9445 165.14 97.9445 163.1C97.9445 161.084 98.3765 159.308 99.2405 157.772C100.128 156.212 101.328 155.024 102.84 154.208C104.352 153.368 106.044 152.948 107.916 152.948C109.788 152.948 111.48 153.368 112.992 154.208C114.504 155.024 115.692 156.2 116.556 157.736C117.444 159.272 117.888 161.06 117.888 163.1C117.888 165.14 117.432 166.94 116.52 168.5C115.632 170.036 114.42 171.224 112.884 172.064C111.348 172.904 109.644 173.324 107.772 173.324ZM107.772 170.444C108.948 170.444 110.052 170.168 111.084 169.616C112.116 169.064 112.944 168.236 113.568 167.132C114.216 166.028 114.54 164.684 114.54 163.1C114.54 161.516 114.228 160.172 113.604 159.068C112.98 157.964 112.164 157.148 111.156 156.62C110.148 156.068 109.056 155.792 107.88 155.792C106.68 155.792 105.576 156.068 104.568 156.62C103.584 157.148 102.792 157.964 102.192 159.068C101.592 160.172 101.292 161.516 101.292 163.1C101.292 164.708 101.58 166.064 102.156 167.168C102.756 168.272 103.548 169.1 104.532 169.652C105.516 170.18 106.596 170.444 107.772 170.444ZM139.692 153.272V173H136.416V170.084C135.792 171.092 134.916 171.884 133.788 172.46C132.684 173.012 131.46 173.288 130.116 173.288C128.58 173.288 127.2 172.976 125.976 172.352C124.752 171.704 123.78 170.744 123.06 169.472C122.364 168.2 122.016 166.652 122.016 164.828V153.272H125.256V164.396C125.256 166.34 125.748 167.84 126.732 168.896C127.716 169.928 129.06 170.444 130.764 170.444C132.516 170.444 133.896 169.904 134.904 168.824C135.912 167.744 136.416 166.172 136.416 164.108V153.272H139.692ZM148.499 156.476C149.075 155.348 149.891 154.472 150.947 153.848C152.027 153.224 153.335 152.912 154.871 152.912V156.296H154.007C150.335 156.296 148.499 158.288 148.499 162.272V173H145.223V153.272H148.499V156.476ZM176.855 173.324C175.007 173.324 173.327 172.904 171.815 172.064C170.327 171.224 169.151 170.036 168.287 168.5C167.447 166.94 167.027 165.14 167.027 163.1C167.027 161.084 167.459 159.308 168.323 157.772C169.211 156.212 170.411 155.024 171.923 154.208C173.435 153.368 175.127 152.948 176.999 152.948C178.871 152.948 180.563 153.368 182.075 154.208C183.587 155.024 184.775 156.2 185.639 157.736C186.527 159.272 186.971 161.06 186.971 163.1C186.971 165.14 186.515 166.94 185.603 168.5C184.715 170.036 183.503 171.224 181.967 172.064C180.431 172.904 178.727 173.324 176.855 173.324ZM176.855 170.444C178.031 170.444 179.135 170.168 180.167 169.616C181.199 169.064 182.027 168.236 182.651 167.132C183.299 166.028 183.623 164.684 183.623 163.1C183.623 161.516 183.311 160.172 182.687 159.068C182.063 157.964 181.247 157.148 180.239 156.62C179.231 156.068 178.139 155.792 176.963 155.792C175.763 155.792 174.659 156.068 173.651 156.62C172.667 157.148 171.875 157.964 171.275 159.068C170.675 160.172 170.375 161.516 170.375 163.1C170.375 164.708 170.663 166.064 171.239 167.168C171.839 168.272 172.631 169.1 173.615 169.652C174.599 170.18 175.679 170.444 176.855 170.444ZM194.554 156.476C195.13 155.348 195.946 154.472 197.002 153.848C198.082 153.224 199.39 152.912 200.926 152.912V156.296H200.062C196.39 156.296 194.554 158.288 194.554 162.272V173H191.278V153.272H194.554V156.476ZM203.484 163.064C203.484 161.048 203.892 159.284 204.708 157.772C205.524 156.236 206.64 155.048 208.056 154.208C209.496 153.368 211.104 152.948 212.88 152.948C214.416 152.948 215.844 153.308 217.164 154.028C218.484 154.724 219.492 155.648 220.188 156.8V146.36H223.5V173H220.188V169.292C219.54 170.468 218.58 171.44 217.308 172.208C216.036 172.952 214.548 173.324 212.844 173.324C211.092 173.324 209.496 172.892 208.056 172.028C206.64 171.164 205.524 169.952 204.708 168.392C203.892 166.832 203.484 165.056 203.484 163.064ZM220.188 163.1C220.188 161.612 219.888 160.316 219.288 159.212C218.688 158.108 217.872 157.268 216.84 156.692C215.832 156.092 214.716 155.792 213.492 155.792C212.268 155.792 211.152 156.08 210.144 156.656C209.136 157.232 208.332 158.072 207.732 159.176C207.132 160.28 206.832 161.576 206.832 163.064C206.832 164.576 207.132 165.896 207.732 167.024C208.332 168.128 209.136 168.98 210.144 169.58C211.152 170.156 212.268 170.444 213.492 170.444C214.716 170.444 215.832 170.156 216.84 169.58C217.872 168.98 218.688 168.128 219.288 167.024C219.888 165.896 220.188 164.588 220.188 163.1ZM247.036 162.38C247.036 163.004 247 163.664 246.928 164.36H231.16C231.28 166.304 231.94 167.828 233.14 168.932C234.364 170.012 235.84 170.552 237.568 170.552C238.984 170.552 240.16 170.228 241.096 169.58C242.056 168.908 242.728 168.02 243.112 166.916H246.64C246.112 168.812 245.056 170.36 243.472 171.56C241.888 172.736 239.92 173.324 237.568 173.324C235.696 173.324 234.016 172.904 232.528 172.064C231.064 171.224 229.912 170.036 229.072 168.5C228.232 166.94 227.812 165.14 227.812 163.1C227.812 161.06 228.22 159.272 229.036 157.736C229.852 156.2 230.992 155.024 232.456 154.208C233.944 153.368 235.648 152.948 237.568 152.948C239.44 152.948 241.096 153.356 242.536 154.172C243.976 154.988 245.08 156.116 245.848 157.556C246.64 158.972 247.036 160.58 247.036 162.38ZM243.652 161.696C243.652 160.448 243.376 159.38 242.824 158.492C242.272 157.58 241.516 156.896 240.556 156.44C239.62 155.96 238.576 155.72 237.424 155.72C235.768 155.72 234.352 156.248 233.176 157.304C232.024 158.36 231.364 159.824 231.196 161.696H243.652ZM254.636 156.476C255.212 155.348 256.028 154.472 257.084 153.848C258.164 153.224 259.472 152.912 261.008 152.912V156.296H260.144C256.472 156.296 254.636 158.288 254.636 162.272V173H251.36V153.272H254.636V156.476ZM276.079 150.068C275.455 150.068 274.927 149.852 274.495 149.42C274.063 148.988 273.847 148.46 273.847 147.836C273.847 147.212 274.063 146.684 274.495 146.252C274.927 145.82 275.455 145.604 276.079 145.604C276.679 145.604 277.183 145.82 277.591 146.252C278.023 146.684 278.239 147.212 278.239 147.836C278.239 148.46 278.023 148.988 277.591 149.42C277.183 149.852 276.679 150.068 276.079 150.068ZM277.663 153.272V173H274.387V153.272H277.663ZM290.231 173.324C288.719 173.324 287.363 173.072 286.163 172.568C284.963 172.04 284.015 171.32 283.319 170.408C282.623 169.472 282.239 168.404 282.167 167.204H285.551C285.647 168.188 286.103 168.992 286.919 169.616C287.759 170.24 288.851 170.552 290.195 170.552C291.443 170.552 292.427 170.276 293.147 169.724C293.867 169.172 294.227 168.476 294.227 167.636C294.227 166.772 293.843 166.136 293.075 165.728C292.307 165.296 291.119 164.876 289.511 164.468C288.047 164.084 286.847 163.7 285.911 163.316C284.999 162.908 284.207 162.32 283.535 161.552C282.887 160.76 282.563 159.728 282.563 158.456C282.563 157.448 282.863 156.524 283.463 155.684C284.063 154.844 284.915 154.184 286.019 153.704C287.123 153.2 288.383 152.948 289.799 152.948C291.983 152.948 293.747 153.5 295.091 154.604C296.435 155.708 297.155 157.22 297.251 159.14H293.975C293.903 158.108 293.483 157.28 292.715 156.656C291.971 156.032 290.963 155.72 289.691 155.72C288.515 155.72 287.579 155.972 286.883 156.476C286.187 156.98 285.839 157.64 285.839 158.456C285.839 159.104 286.043 159.644 286.451 160.076C286.883 160.484 287.411 160.82 288.035 161.084C288.683 161.324 289.571 161.6 290.699 161.912C292.115 162.296 293.267 162.68 294.155 163.064C295.043 163.424 295.799 163.976 296.423 164.72C297.071 165.464 297.407 166.436 297.431 167.636C297.431 168.716 297.131 169.688 296.531 170.552C295.931 171.416 295.079 172.1 293.975 172.604C292.895 173.084 291.647 173.324 290.231 173.324ZM318.637 173.324C317.125 173.324 315.769 173.072 314.569 172.568C313.369 172.04 312.421 171.32 311.725 170.408C311.029 169.472 310.645 168.404 310.573 167.204H313.957C314.053 168.188 314.509 168.992 315.325 169.616C316.165 170.24 317.257 170.552 318.601 170.552C319.849 170.552 320.833 170.276 321.553 169.724C322.273 169.172 322.633 168.476 322.633 167.636C322.633 166.772 322.249 166.136 321.481 165.728C320.713 165.296 319.525 164.876 317.917 164.468C316.453 164.084 315.253 163.7 314.317 163.316C313.405 162.908 312.613 162.32 311.941 161.552C311.293 160.76 310.969 159.728 310.969 158.456C310.969 157.448 311.269 156.524 311.869 155.684C312.469 154.844 313.321 154.184 314.425 153.704C315.529 153.2 316.789 152.948 318.205 152.948C320.389 152.948 322.153 153.5 323.497 154.604C324.841 155.708 325.561 157.22 325.657 159.14H322.381C322.309 158.108 321.889 157.28 321.121 156.656C320.377 156.032 319.369 155.72 318.097 155.72C316.921 155.72 315.985 155.972 315.289 156.476C314.593 156.98 314.245 157.64 314.245 158.456C314.245 159.104 314.449 159.644 314.857 160.076C315.289 160.484 315.817 160.82 316.441 161.084C317.089 161.324 317.977 161.6 319.105 161.912C320.521 162.296 321.673 162.68 322.561 163.064C323.449 163.424 324.205 163.976 324.829 164.72C325.477 165.464 325.813 166.436 325.837 167.636C325.837 168.716 325.537 169.688 324.937 170.552C324.337 171.416 323.485 172.1 322.381 172.604C321.301 173.084 320.053 173.324 318.637 173.324ZM347.957 153.272V173H344.681V170.084C344.057 171.092 343.181 171.884 342.053 172.46C340.949 173.012 339.725 173.288 338.381 173.288C336.845 173.288 335.465 172.976 334.241 172.352C333.017 171.704 332.045 170.744 331.325 169.472C330.629 168.2 330.281 166.652 330.281 164.828V153.272H333.521V164.396C333.521 166.34 334.013 167.84 334.997 168.896C335.981 169.928 337.325 170.444 339.029 170.444C340.781 170.444 342.161 169.904 343.169 168.824C344.177 167.744 344.681 166.172 344.681 164.108V153.272H347.957ZM352.265 163.1C352.265 161.06 352.673 159.284 353.489 157.772C354.305 156.236 355.433 155.048 356.873 154.208C358.337 153.368 360.005 152.948 361.877 152.948C364.301 152.948 366.293 153.536 367.853 154.712C369.437 155.888 370.481 157.52 370.985 159.608H367.457C367.121 158.408 366.461 157.46 365.477 156.764C364.517 156.068 363.317 155.72 361.877 155.72C360.005 155.72 358.493 156.368 357.341 157.664C356.189 158.936 355.613 160.748 355.613 163.1C355.613 165.476 356.189 167.312 357.341 168.608C358.493 169.904 360.005 170.552 361.877 170.552C363.317 170.552 364.517 170.216 365.477 169.544C366.437 168.872 367.097 167.912 367.457 166.664H370.985C370.457 168.68 369.401 170.3 367.817 171.524C366.233 172.724 364.253 173.324 361.877 173.324C360.005 173.324 358.337 172.904 356.873 172.064C355.433 171.224 354.305 170.036 353.489 168.5C352.673 166.964 352.265 165.164 352.265 163.1ZM374.132 163.1C374.132 161.06 374.54 159.284 375.356 157.772C376.172 156.236 377.3 155.048 378.74 154.208C380.204 153.368 381.872 152.948 383.744 152.948C386.168 152.948 388.16 153.536 389.72 154.712C391.304 155.888 392.348 157.52 392.852 159.608H389.324C388.988 158.408 388.328 157.46 387.344 156.764C386.384 156.068 385.184 155.72 383.744 155.72C381.872 155.72 380.36 156.368 379.208 157.664C378.056 158.936 377.48 160.748 377.48 163.1C377.48 165.476 378.056 167.312 379.208 168.608C380.36 169.904 381.872 170.552 383.744 170.552C385.184 170.552 386.384 170.216 387.344 169.544C388.304 168.872 388.964 167.912 389.324 166.664H392.852C392.324 168.68 391.268 170.3 389.684 171.524C388.1 172.724 386.12 173.324 383.744 173.324C381.872 173.324 380.204 172.904 378.74 172.064C377.3 171.224 376.172 170.036 375.356 168.5C374.54 166.964 374.132 165.164 374.132 163.1ZM415.223 162.38C415.223 163.004 415.187 163.664 415.115 164.36H399.347C399.467 166.304 400.127 167.828 401.327 168.932C402.551 170.012 404.027 170.552 405.755 170.552C407.171 170.552 408.347 170.228 409.283 169.58C410.243 168.908 410.915 168.02 411.299 166.916H414.827C414.299 168.812 413.243 170.36 411.659 171.56C410.075 172.736 408.107 173.324 405.755 173.324C403.883 173.324 402.203 172.904 400.715 172.064C399.251 171.224 398.099 170.036 397.259 168.5C396.419 166.94 395.999 165.14 395.999 163.1C395.999 161.06 396.407 159.272 397.223 157.736C398.039 156.2 399.179 155.024 400.643 154.208C402.131 153.368 403.835 152.948 405.755 152.948C407.627 152.948 409.283 153.356 410.723 154.172C412.163 154.988 413.267 156.116 414.035 157.556C414.827 158.972 415.223 160.58 415.223 162.38ZM411.839 161.696C411.839 160.448 411.563 159.38 411.011 158.492C410.459 157.58 409.703 156.896 408.743 156.44C407.807 155.96 406.763 155.72 405.611 155.72C403.955 155.72 402.539 156.248 401.363 157.304C400.211 158.36 399.551 159.824 399.383 161.696H411.839ZM426.531 173.324C425.019 173.324 423.663 173.072 422.463 172.568C421.263 172.04 420.315 171.32 419.619 170.408C418.923 169.472 418.539 168.404 418.467 167.204H421.851C421.947 168.188 422.403 168.992 423.219 169.616C424.059 170.24 425.151 170.552 426.495 170.552C427.743 170.552 428.727 170.276 429.447 169.724C430.167 169.172 430.527 168.476 430.527 167.636C430.527 166.772 430.143 166.136 429.375 165.728C428.607 165.296 427.419 164.876 425.811 164.468C424.347 164.084 423.147 163.7 422.211 163.316C421.299 162.908 420.507 162.32 419.835 161.552C419.187 160.76 418.863 159.728 418.863 158.456C418.863 157.448 419.163 156.524 419.763 155.684C420.363 154.844 421.215 154.184 422.319 153.704C423.423 153.2 424.683 152.948 426.099 152.948C428.283 152.948 430.047 153.5 431.391 154.604C432.735 155.708 433.455 157.22 433.551 159.14H430.275C430.203 158.108 429.783 157.28 429.015 156.656C428.271 156.032 427.263 155.72 425.991 155.72C424.815 155.72 423.879 155.972 423.183 156.476C422.487 156.98 422.139 157.64 422.139 158.456C422.139 159.104 422.343 159.644 422.751 160.076C423.183 160.484 423.711 160.82 424.335 161.084C424.983 161.324 425.871 161.6 426.999 161.912C428.415 162.296 429.567 162.68 430.455 163.064C431.343 163.424 432.099 163.976 432.723 164.72C433.371 165.464 433.707 166.436 433.731 167.636C433.731 168.716 433.431 169.688 432.831 170.552C432.231 171.416 431.379 172.1 430.275 172.604C429.195 173.084 427.947 173.324 426.531 173.324ZM445.34 173.324C443.828 173.324 442.472 173.072 441.272 172.568C440.072 172.04 439.124 171.32 438.428 170.408C437.732 169.472 437.348 168.404 437.276 167.204H440.66C440.756 168.188 441.212 168.992 442.028 169.616C442.868 170.24 443.96 170.552 445.304 170.552C446.552 170.552 447.536 170.276 448.256 169.724C448.976 169.172 449.336 168.476 449.336 167.636C449.336 166.772 448.952 166.136 448.184 165.728C447.416 165.296 446.228 164.876 444.62 164.468C443.156 164.084 441.956 163.7 441.02 163.316C440.108 162.908 439.316 162.32 438.644 161.552C437.996 160.76 437.672 159.728 437.672 158.456C437.672 157.448 437.972 156.524 438.572 155.684C439.172 154.844 440.024 154.184 441.128 153.704C442.232 153.2 443.492 152.948 444.908 152.948C447.092 152.948 448.856 153.5 450.2 154.604C451.544 155.708 452.264 157.22 452.36 159.14H449.084C449.012 158.108 448.592 157.28 447.824 156.656C447.08 156.032 446.072 155.72 444.8 155.72C443.624 155.72 442.688 155.972 441.992 156.476C441.296 156.98 440.948 157.64 440.948 158.456C440.948 159.104 441.152 159.644 441.56 160.076C441.992 160.484 442.52 160.82 443.144 161.084C443.792 161.324 444.68 161.6 445.808 161.912C447.224 162.296 448.376 162.68 449.264 163.064C450.152 163.424 450.908 163.976 451.532 164.72C452.18 165.464 452.516 166.436 452.54 167.636C452.54 168.716 452.24 169.688 451.64 170.552C451.04 171.416 450.188 172.1 449.084 172.604C448.004 173.084 446.756 173.324 445.34 173.324ZM465.193 155.972H461.053V173H457.777V155.972H455.221V153.272H457.777V151.868C457.777 149.66 458.341 148.052 459.469 147.044C460.621 146.012 462.457 145.496 464.977 145.496V148.232C463.537 148.232 462.517 148.52 461.917 149.096C461.341 149.648 461.053 150.572 461.053 151.868V153.272H465.193V155.972ZM486.508 153.272V173H483.232V170.084C482.608 171.092 481.732 171.884 480.604 172.46C479.5 173.012 478.276 173.288 476.932 173.288C475.396 173.288 474.016 172.976 472.792 172.352C471.568 171.704 470.596 170.744 469.876 169.472C469.18 168.2 468.832 166.652 468.832 164.828V153.272H472.072V164.396C472.072 166.34 472.564 167.84 473.548 168.896C474.532 169.928 475.876 170.444 477.58 170.444C479.332 170.444 480.712 169.904 481.72 168.824C482.728 167.744 483.232 166.172 483.232 164.108V153.272H486.508ZM495.316 146.36V173H492.04V146.36H495.316ZM504.175 146.36V173H500.899V146.36H504.175ZM526.75 153.272L514.87 182.288H511.486L515.374 172.784L507.418 153.272H511.054L517.246 169.256L523.366 153.272H526.75ZM542.917 156.908C543.565 155.78 544.525 154.844 545.797 154.1C547.093 153.332 548.593 152.948 550.297 152.948C552.049 152.948 553.633 153.368 555.049 154.208C556.489 155.048 557.617 156.236 558.433 157.772C559.249 159.284 559.657 161.048 559.657 163.064C559.657 165.056 559.249 166.832 558.433 168.392C557.617 169.952 556.489 171.164 555.049 172.028C553.633 172.892 552.049 173.324 550.297 173.324C548.617 173.324 547.129 172.952 545.833 172.208C544.561 171.44 543.589 170.492 542.917 169.364V182.36H539.641V153.272H542.917V156.908ZM556.309 163.064C556.309 161.576 556.009 160.28 555.409 159.176C554.809 158.072 553.993 157.232 552.961 156.656C551.953 156.08 550.837 155.792 549.613 155.792C548.413 155.792 547.297 156.092 546.265 156.692C545.257 157.268 544.441 158.12 543.817 159.248C543.217 160.352 542.917 161.636 542.917 163.1C542.917 164.588 543.217 165.896 543.817 167.024C544.441 168.128 545.257 168.98 546.265 169.58C547.297 170.156 548.413 170.444 549.613 170.444C550.837 170.444 551.953 170.156 552.961 169.58C553.993 168.98 554.809 168.128 555.409 167.024C556.009 165.896 556.309 164.576 556.309 163.064ZM567.245 146.36V173H563.969V146.36H567.245ZM571.605 163.064C571.605 161.048 572.013 159.284 572.829 157.772C573.645 156.236 574.761 155.048 576.177 154.208C577.617 153.368 579.213 152.948 580.965 152.948C582.693 152.948 584.193 153.32 585.465 154.064C586.737 154.808 587.685 155.744 588.309 156.872V153.272H591.621V173H588.309V169.328C587.661 170.48 586.689 171.44 585.393 172.208C584.121 172.952 582.633 173.324 580.929 173.324C579.177 173.324 577.593 172.892 576.177 172.028C574.761 171.164 573.645 169.952 572.829 168.392C572.013 166.832 571.605 165.056 571.605 163.064ZM588.309 163.1C588.309 161.612 588.009 160.316 587.409 159.212C586.809 158.108 585.993 157.268 584.961 156.692C583.953 156.092 582.837 155.792 581.613 155.792C580.389 155.792 579.273 156.08 578.265 156.656C577.257 157.232 576.453 158.072 575.853 159.176C575.253 160.28 574.953 161.576 574.953 163.064C574.953 164.576 575.253 165.896 575.853 167.024C576.453 168.128 577.257 168.98 578.265 169.58C579.273 170.156 580.389 170.444 581.613 170.444C582.837 170.444 583.953 170.156 584.961 169.58C585.993 168.98 586.809 168.128 587.409 167.024C588.009 165.896 588.309 164.588 588.309 163.1ZM595.933 163.1C595.933 161.06 596.341 159.284 597.157 157.772C597.973 156.236 599.101 155.048 600.541 154.208C602.005 153.368 603.673 152.948 605.545 152.948C607.969 152.948 609.961 153.536 611.521 154.712C613.105 155.888 614.149 157.52 614.653 159.608H611.125C610.789 158.408 610.129 157.46 609.145 156.764C608.185 156.068 606.985 155.72 605.545 155.72C603.673 155.72 602.161 156.368 601.009 157.664C599.857 158.936 599.281 160.748 599.281 163.1C599.281 165.476 599.857 167.312 601.009 168.608C602.161 169.904 603.673 170.552 605.545 170.552C606.985 170.552 608.185 170.216 609.145 169.544C610.105 168.872 610.765 167.912 611.125 166.664H614.653C614.125 168.68 613.069 170.3 611.485 171.524C609.901 172.724 607.921 173.324 605.545 173.324C603.673 173.324 602.005 172.904 600.541 172.064C599.101 171.224 597.973 170.036 597.157 168.5C596.341 166.964 595.933 165.164 595.933 163.1ZM637.024 162.38C637.024 163.004 636.988 163.664 636.916 164.36H621.148C621.268 166.304 621.928 167.828 623.128 168.932C624.352 170.012 625.828 170.552 627.556 170.552C628.972 170.552 630.148 170.228 631.084 169.58C632.044 168.908 632.716 168.02 633.1 166.916H636.628C636.1 168.812 635.044 170.36 633.46 171.56C631.876 172.736 629.908 173.324 627.556 173.324C625.684 173.324 624.004 172.904 622.516 172.064C621.052 171.224 619.9 170.036 619.06 168.5C618.22 166.94 617.8 165.14 617.8 163.1C617.8 161.06 618.208 159.272 619.024 157.736C619.84 156.2 620.98 155.024 622.444 154.208C623.932 153.368 625.636 152.948 627.556 152.948C629.428 152.948 631.084 153.356 632.524 154.172C633.964 154.988 635.068 156.116 635.836 157.556C636.628 158.972 637.024 160.58 637.024 162.38ZM633.64 161.696C633.64 160.448 633.364 159.38 632.812 158.492C632.26 157.58 631.504 156.896 630.544 156.44C629.608 155.96 628.564 155.72 627.412 155.72C625.756 155.72 624.34 156.248 623.164 157.304C622.012 158.36 621.352 159.824 621.184 161.696H633.64ZM640.124 163.064C640.124 161.048 640.532 159.284 641.348 157.772C642.164 156.236 643.28 155.048 644.696 154.208C646.136 153.368 647.744 152.948 649.52 152.948C651.056 152.948 652.484 153.308 653.804 154.028C655.124 154.724 656.132 155.648 656.828 156.8V146.36H660.14V173H656.828V169.292C656.18 170.468 655.22 171.44 653.948 172.208C652.676 172.952 651.188 173.324 649.484 173.324C647.732 173.324 646.136 172.892 644.696 172.028C643.28 171.164 642.164 169.952 641.348 168.392C640.532 166.832 640.124 165.056 640.124 163.064ZM656.828 163.1C656.828 161.612 656.528 160.316 655.928 159.212C655.328 158.108 654.512 157.268 653.48 156.692C652.472 156.092 651.356 155.792 650.132 155.792C648.908 155.792 647.792 156.08 646.784 156.656C645.776 157.232 644.972 158.072 644.372 159.176C643.772 160.28 643.472 161.576 643.472 163.064C643.472 164.576 643.772 165.896 644.372 167.024C644.972 168.128 645.776 168.98 646.784 169.58C647.792 170.156 648.908 170.444 650.132 170.444C651.356 170.444 652.472 170.156 653.48 169.58C654.512 168.98 655.328 168.128 655.928 167.024C656.528 165.896 656.828 164.588 656.828 163.1ZM669.924 147.908L669.528 165.908H666.792L666.396 147.908H669.924ZM668.304 173.216C667.68 173.216 667.152 173 666.72 172.568C666.288 172.136 666.072 171.608 666.072 170.984C666.072 170.36 666.288 169.832 666.72 169.4C667.152 168.968 667.68 168.752 668.304 168.752C668.904 168.752 669.408 168.968 669.816 169.4C670.248 169.832 670.464 170.36 670.464 170.984C670.464 171.608 670.248 172.136 669.816 172.568C669.408 173 668.904 173.216 668.304 173.216Z" fill="black"/>
<path d="M232.783 260.364H234.01L237.459 265.886H237.561L241.01 260.364H242.237L238.038 266.96V272H236.982V266.96L232.783 260.364ZM246.18 272.182C245.427 272.182 244.76 271.991 244.18 271.608C243.605 271.225 243.154 270.697 242.828 270.023C242.502 269.345 242.339 268.562 242.339 267.676C242.339 266.782 242.502 265.996 242.828 265.318C243.154 264.636 243.605 264.106 244.18 263.727C244.76 263.345 245.427 263.153 246.18 263.153C246.934 263.153 247.599 263.345 248.175 263.727C248.75 264.11 249.201 264.64 249.527 265.318C249.857 265.996 250.021 266.782 250.021 267.676C250.021 268.562 249.858 269.345 249.533 270.023C249.207 270.697 248.754 271.225 248.175 271.608C247.599 271.991 246.934 272.182 246.18 272.182ZM246.18 271.256C246.786 271.256 247.3 271.093 247.72 270.767C248.141 270.441 248.459 270.008 248.675 269.466C248.894 268.924 249.004 268.328 249.004 267.676C249.004 267.025 248.894 266.426 248.675 265.881C248.459 265.335 248.141 264.898 247.72 264.568C247.3 264.239 246.786 264.074 246.18 264.074C245.578 264.074 245.065 264.239 244.641 264.568C244.22 264.898 243.9 265.335 243.68 265.881C243.464 266.426 243.357 267.025 243.357 267.676C243.357 268.328 243.464 268.924 243.68 269.466C243.9 270.008 244.22 270.441 244.641 270.767C245.061 271.093 245.574 271.256 246.18 271.256ZM257.787 268.665V263.273H258.798V272H257.787V270.551H257.707C257.503 270.998 257.179 271.371 256.736 271.67C256.293 271.966 255.751 272.114 255.111 272.114C254.554 272.114 254.06 271.992 253.628 271.75C253.196 271.504 252.857 271.144 252.611 270.67C252.365 270.197 252.241 269.616 252.241 268.926V263.273H253.253V268.864C253.253 269.545 253.454 270.095 253.855 270.511C254.257 270.924 254.772 271.131 255.401 271.131C255.795 271.131 256.173 271.036 256.537 270.847C256.901 270.657 257.2 270.381 257.435 270.017C257.67 269.65 257.787 269.199 257.787 268.665ZM261.476 272V263.273H262.459V264.614H262.533C262.707 264.174 263.01 263.82 263.442 263.551C263.877 263.278 264.37 263.142 264.919 263.142C265.002 263.142 265.095 263.144 265.197 263.148C265.3 263.152 265.385 263.155 265.453 263.159V264.188C265.408 264.18 265.328 264.169 265.214 264.153C265.101 264.138 264.978 264.131 264.845 264.131C264.391 264.131 263.985 264.227 263.629 264.42C263.277 264.61 262.999 264.873 262.794 265.21C262.589 265.547 262.487 265.932 262.487 266.364V272H261.476ZM275.071 272.182C274.317 272.182 273.651 271.991 273.071 271.608C272.495 271.225 272.045 270.697 271.719 270.023C271.393 269.345 271.23 268.562 271.23 267.676C271.23 266.782 271.393 265.996 271.719 265.318C272.045 264.636 272.495 264.106 273.071 263.727C273.651 263.345 274.317 263.153 275.071 263.153C275.825 263.153 276.49 263.345 277.065 263.727C277.641 264.11 278.092 264.64 278.418 265.318C278.747 265.996 278.912 266.782 278.912 267.676C278.912 268.562 278.749 269.345 278.423 270.023C278.098 270.697 277.645 271.225 277.065 271.608C276.49 271.991 275.825 272.182 275.071 272.182ZM275.071 271.256C275.677 271.256 276.19 271.093 276.611 270.767C277.031 270.441 277.349 270.008 277.565 269.466C277.785 268.924 277.895 268.328 277.895 267.676C277.895 267.025 277.785 266.426 277.565 265.881C277.349 265.335 277.031 264.898 276.611 264.568C276.19 264.239 275.677 264.074 275.071 264.074C274.469 264.074 273.955 264.239 273.531 264.568C273.111 264.898 272.791 265.335 272.571 265.881C272.355 266.426 272.247 267.025 272.247 267.676C272.247 268.328 272.355 268.924 272.571 269.466C272.791 270.008 273.111 270.441 273.531 270.767C273.952 271.093 274.465 271.256 275.071 271.256ZM281.132 272V263.273H282.115V264.614H282.189C282.363 264.174 282.666 263.82 283.098 263.551C283.534 263.278 284.026 263.142 284.575 263.142C284.659 263.142 284.751 263.144 284.854 263.148C284.956 263.152 285.041 263.155 285.109 263.159V264.188C285.064 264.18 284.984 264.169 284.871 264.153C284.757 264.138 284.634 264.131 284.501 264.131C284.047 264.131 283.642 264.227 283.286 264.42C282.933 264.61 282.655 264.873 282.45 265.21C282.246 265.547 282.143 265.932 282.143 266.364V272H281.132ZM289.712 272.182C288.996 272.182 288.369 271.992 287.831 271.614C287.293 271.235 286.873 270.706 286.57 270.028C286.27 269.35 286.121 268.561 286.121 267.659C286.121 266.761 286.27 265.975 286.57 265.301C286.873 264.623 287.295 264.097 287.837 263.722C288.378 263.343 289.009 263.153 289.729 263.153C290.259 263.153 290.7 263.248 291.053 263.438C291.405 263.623 291.687 263.854 291.899 264.131C292.111 264.407 292.276 264.676 292.393 264.938H292.484V260.364H293.501V272H292.513V270.381H292.393C292.276 270.646 292.109 270.919 291.893 271.199C291.678 271.475 291.392 271.708 291.036 271.898C290.683 272.087 290.242 272.182 289.712 272.182ZM289.831 271.256C290.395 271.256 290.876 271.102 291.274 270.795C291.672 270.485 291.975 270.059 292.183 269.517C292.395 268.972 292.501 268.347 292.501 267.642C292.501 266.945 292.397 266.33 292.189 265.795C291.981 265.258 291.678 264.837 291.28 264.534C290.882 264.227 290.399 264.074 289.831 264.074C289.248 264.074 288.755 264.233 288.354 264.551C287.956 264.866 287.653 265.292 287.445 265.83C287.24 266.367 287.138 266.972 287.138 267.642C287.138 268.32 287.242 268.932 287.45 269.477C287.659 270.023 287.962 270.456 288.359 270.778C288.761 271.097 289.251 271.256 289.831 271.256ZM299.911 272.182C299.096 272.182 298.392 271.992 297.797 271.614C297.202 271.231 296.742 270.703 296.416 270.028C296.094 269.35 295.933 268.57 295.933 267.688C295.933 266.809 296.094 266.028 296.416 265.347C296.742 264.661 297.191 264.125 297.763 263.739C298.339 263.348 299.003 263.153 299.757 263.153C300.231 263.153 300.687 263.241 301.126 263.415C301.566 263.585 301.96 263.848 302.308 264.205C302.661 264.557 302.939 265.002 303.143 265.54C303.348 266.074 303.45 266.706 303.45 267.438V267.938H296.632V267.045H302.416C302.416 266.485 302.303 265.981 302.075 265.534C301.852 265.083 301.539 264.727 301.138 264.466C300.74 264.205 300.28 264.074 299.757 264.074C299.204 264.074 298.717 264.222 298.297 264.517C297.876 264.812 297.547 265.203 297.308 265.688C297.073 266.172 296.954 266.703 296.95 267.278V267.812C296.95 268.506 297.07 269.112 297.308 269.631C297.551 270.146 297.893 270.545 298.337 270.83C298.78 271.114 299.304 271.256 299.911 271.256C300.323 271.256 300.685 271.191 300.996 271.062C301.31 270.934 301.573 270.761 301.786 270.545C302.001 270.326 302.164 270.085 302.274 269.824L303.234 270.136C303.102 270.504 302.884 270.843 302.581 271.153C302.282 271.464 301.907 271.714 301.456 271.903C301.009 272.089 300.494 272.182 299.911 272.182ZM305.679 272V263.273H306.662V264.614H306.736C306.91 264.174 307.213 263.82 307.645 263.551C308.08 263.278 308.573 263.142 309.122 263.142C309.205 263.142 309.298 263.144 309.401 263.148C309.503 263.152 309.588 263.155 309.656 263.159V264.188C309.611 264.18 309.531 264.169 309.418 264.153C309.304 264.138 309.181 264.131 309.048 264.131C308.594 264.131 308.188 264.227 307.832 264.42C307.48 264.61 307.202 264.873 306.997 265.21C306.793 265.547 306.69 265.932 306.69 266.364V272H305.679ZM317.82 272L315.183 263.273H316.251L318.32 270.472H318.393L320.456 263.273H321.53L323.575 270.455H323.655L325.723 263.273H326.791L324.155 272H323.109L321.041 264.847H320.933L318.865 272H317.82ZM328.768 272V263.273H329.786V272H328.768ZM329.286 261.773C329.077 261.773 328.899 261.703 328.751 261.562C328.604 261.419 328.53 261.246 328.53 261.045C328.53 260.845 328.604 260.674 328.751 260.534C328.899 260.39 329.077 260.318 329.286 260.318C329.494 260.318 329.672 260.39 329.82 260.534C329.967 260.674 330.041 260.845 330.041 261.045C330.041 261.246 329.967 261.419 329.82 261.562C329.672 261.703 329.494 261.773 329.286 261.773ZM333.472 260.364V272H332.46V260.364H333.472ZM337.159 260.364V272H336.148V260.364H337.159ZM344.545 272V260.364H345.562V264.938H345.653C345.767 264.676 345.93 264.407 346.142 264.131C346.358 263.854 346.64 263.623 346.989 263.438C347.341 263.248 347.784 263.153 348.318 263.153C349.034 263.153 349.663 263.343 350.205 263.722C350.746 264.097 351.169 264.623 351.472 265.301C351.775 265.975 351.926 266.761 351.926 267.659C351.926 268.561 351.775 269.35 351.472 270.028C351.172 270.706 350.752 271.235 350.21 271.614C349.672 271.992 349.047 272.182 348.335 272.182C347.805 272.182 347.362 272.087 347.006 271.898C346.653 271.708 346.369 271.475 346.153 271.199C345.938 270.919 345.771 270.646 345.653 270.381H345.528V272H344.545ZM345.545 267.642C345.545 268.347 345.65 268.972 345.858 269.517C346.07 270.059 346.373 270.485 346.767 270.795C347.165 271.102 347.646 271.256 348.21 271.256C348.79 271.256 349.28 271.097 349.682 270.778C350.083 270.456 350.388 270.023 350.597 269.477C350.805 268.932 350.909 268.32 350.909 267.642C350.909 266.972 350.805 266.367 350.597 265.83C350.392 265.292 350.089 264.866 349.688 264.551C349.286 264.233 348.794 264.074 348.21 264.074C347.642 264.074 347.159 264.227 346.761 264.534C346.367 264.837 346.066 265.258 345.858 265.795C345.65 266.33 345.545 266.945 345.545 267.642ZM357.676 272.182C356.862 272.182 356.157 271.992 355.562 271.614C354.968 271.231 354.508 270.703 354.182 270.028C353.86 269.35 353.699 268.57 353.699 267.688C353.699 266.809 353.86 266.028 354.182 265.347C354.508 264.661 354.956 264.125 355.528 263.739C356.104 263.348 356.769 263.153 357.523 263.153C357.996 263.153 358.453 263.241 358.892 263.415C359.331 263.585 359.725 263.848 360.074 264.205C360.426 264.557 360.705 265.002 360.909 265.54C361.114 266.074 361.216 266.706 361.216 267.438V267.938H354.398V267.045H360.182C360.182 266.485 360.068 265.981 359.841 265.534C359.617 265.083 359.305 264.727 358.903 264.466C358.506 264.205 358.045 264.074 357.523 264.074C356.97 264.074 356.483 264.222 356.062 264.517C355.642 264.812 355.313 265.203 355.074 265.688C354.839 266.172 354.72 266.703 354.716 267.278V267.812C354.716 268.506 354.835 269.112 355.074 269.631C355.316 270.146 355.659 270.545 356.102 270.83C356.545 271.114 357.07 271.256 357.676 271.256C358.089 271.256 358.451 271.191 358.761 271.062C359.076 270.934 359.339 270.761 359.551 270.545C359.767 270.326 359.93 270.085 360.04 269.824L361 270.136C360.867 270.504 360.65 270.843 360.347 271.153C360.047 271.464 359.672 271.714 359.222 271.903C358.775 272.089 358.259 272.182 357.676 272.182ZM367.945 272V263.273H368.928V264.614H369.001C369.176 264.174 369.479 263.82 369.911 263.551C370.346 263.278 370.839 263.142 371.388 263.142C371.471 263.142 371.564 263.144 371.666 263.148C371.768 263.152 371.854 263.155 371.922 263.159V264.188C371.876 264.18 371.797 264.169 371.683 264.153C371.57 264.138 371.446 264.131 371.314 264.131C370.859 264.131 370.454 264.227 370.098 264.42C369.746 264.61 369.467 264.873 369.263 265.21C369.058 265.547 368.956 265.932 368.956 266.364V272H367.945ZM376.911 272.182C376.096 272.182 375.392 271.992 374.797 271.614C374.202 271.231 373.742 270.703 373.416 270.028C373.094 269.35 372.933 268.57 372.933 267.688C372.933 266.809 373.094 266.028 373.416 265.347C373.742 264.661 374.191 264.125 374.763 263.739C375.339 263.348 376.003 263.153 376.757 263.153C377.231 263.153 377.687 263.241 378.126 263.415C378.566 263.585 378.96 263.848 379.308 264.205C379.661 264.557 379.939 265.002 380.143 265.54C380.348 266.074 380.45 266.706 380.45 267.438V267.938H373.632V267.045H379.416C379.416 266.485 379.303 265.981 379.075 265.534C378.852 265.083 378.539 264.727 378.138 264.466C377.74 264.205 377.28 264.074 376.757 264.074C376.204 264.074 375.717 264.222 375.297 264.517C374.876 264.812 374.547 265.203 374.308 265.688C374.073 266.172 373.954 266.703 373.95 267.278V267.812C373.95 268.506 374.07 269.112 374.308 269.631C374.551 270.146 374.893 270.545 375.337 270.83C375.78 271.114 376.304 271.256 376.911 271.256C377.323 271.256 377.685 271.191 377.996 271.062C378.31 270.934 378.573 270.761 378.786 270.545C379.001 270.326 379.164 270.085 379.274 269.824L380.234 270.136C380.102 270.504 379.884 270.843 379.581 271.153C379.282 271.464 378.907 271.714 378.456 271.903C378.009 272.089 377.494 272.182 376.911 272.182ZM385.116 272.199C384.59 272.199 384.109 272.097 383.673 271.892C383.238 271.684 382.891 271.384 382.634 270.994C382.376 270.6 382.247 270.123 382.247 269.562C382.247 269.131 382.329 268.767 382.491 268.472C382.654 268.176 382.885 267.934 383.185 267.744C383.484 267.555 383.838 267.405 384.247 267.295C384.656 267.186 385.107 267.1 385.599 267.04C386.088 266.979 386.501 266.926 386.838 266.881C387.179 266.835 387.438 266.763 387.616 266.665C387.795 266.566 387.884 266.407 387.884 266.188V265.983C387.884 265.388 387.705 264.92 387.349 264.58C386.997 264.235 386.49 264.062 385.827 264.062C385.198 264.062 384.685 264.201 384.287 264.477C383.893 264.754 383.616 265.08 383.457 265.455L382.497 265.108C382.694 264.631 382.967 264.25 383.315 263.966C383.664 263.678 384.054 263.472 384.486 263.347C384.918 263.218 385.355 263.153 385.798 263.153C386.132 263.153 386.478 263.197 386.838 263.284C387.202 263.371 387.539 263.523 387.849 263.739C388.16 263.951 388.412 264.248 388.605 264.631C388.798 265.009 388.895 265.491 388.895 266.074V272H387.884V270.619H387.821C387.7 270.877 387.52 271.127 387.281 271.369C387.043 271.612 386.743 271.811 386.384 271.966C386.024 272.121 385.601 272.199 385.116 272.199ZM385.253 271.273C385.791 271.273 386.257 271.153 386.651 270.915C387.045 270.676 387.348 270.36 387.56 269.966C387.776 269.568 387.884 269.131 387.884 268.653V267.392C387.808 267.464 387.681 267.528 387.503 267.585C387.329 267.642 387.126 267.693 386.895 267.739C386.668 267.78 386.44 267.816 386.213 267.847C385.986 267.877 385.781 267.903 385.599 267.926C385.107 267.987 384.687 268.081 384.338 268.21C383.99 268.339 383.723 268.517 383.537 268.744C383.351 268.968 383.259 269.256 383.259 269.608C383.259 270.138 383.448 270.549 383.827 270.841C384.205 271.129 384.681 271.273 385.253 271.273ZM394.727 272.182C394.011 272.182 393.384 271.992 392.847 271.614C392.309 271.235 391.888 270.706 391.585 270.028C391.286 269.35 391.136 268.561 391.136 267.659C391.136 266.761 391.286 265.975 391.585 265.301C391.888 264.623 392.311 264.097 392.852 263.722C393.394 263.343 394.025 263.153 394.744 263.153C395.275 263.153 395.716 263.248 396.068 263.438C396.42 263.623 396.703 263.854 396.915 264.131C397.127 264.407 397.292 264.676 397.409 264.938H397.5V260.364H398.517V272H397.528V270.381H397.409C397.292 270.646 397.125 270.919 396.909 271.199C396.693 271.475 396.407 271.708 396.051 271.898C395.699 272.087 395.258 272.182 394.727 272.182ZM394.847 271.256C395.411 271.256 395.892 271.102 396.29 270.795C396.688 270.485 396.991 270.059 397.199 269.517C397.411 268.972 397.517 268.347 397.517 267.642C397.517 266.945 397.413 266.33 397.205 265.795C396.996 265.258 396.693 264.837 396.295 264.534C395.898 264.227 395.415 264.074 394.847 264.074C394.263 264.074 393.771 264.233 393.369 264.551C392.972 264.866 392.669 265.292 392.46 265.83C392.256 266.367 392.153 266.972 392.153 267.642C392.153 268.32 392.258 268.932 392.466 269.477C392.674 270.023 392.977 270.456 393.375 270.778C393.777 271.097 394.267 271.256 394.847 271.256ZM402.102 275.273C401.902 275.273 401.714 275.254 401.54 275.216C401.366 275.178 401.227 275.136 401.125 275.091L401.398 274.199C401.742 274.305 402.049 274.343 402.318 274.312C402.587 274.286 402.826 274.165 403.034 273.949C403.242 273.737 403.428 273.411 403.591 272.972L403.909 272.085L400.699 263.273H401.795L404.386 270.665H404.466L407.057 263.273H408.153L404.46 273.381C404.305 273.801 404.114 274.152 403.886 274.432C403.659 274.716 403.396 274.926 403.097 275.062C402.801 275.203 402.47 275.273 402.102 275.273ZM414.643 272V263.273H415.661V272H414.643ZM415.161 261.773C414.952 261.773 414.774 261.703 414.626 261.562C414.479 261.419 414.405 261.246 414.405 261.045C414.405 260.845 414.479 260.674 414.626 260.534C414.774 260.39 414.952 260.318 415.161 260.318C415.369 260.318 415.547 260.39 415.695 260.534C415.842 260.674 415.916 260.845 415.916 261.045C415.916 261.246 415.842 261.419 415.695 261.562C415.547 261.703 415.369 261.773 415.161 261.773ZM419.347 266.545V272H418.335V263.273H419.318V264.642H419.409C419.614 264.195 419.932 263.837 420.364 263.568C420.799 263.295 421.337 263.159 421.977 263.159C422.564 263.159 423.08 263.282 423.523 263.528C423.97 263.771 424.316 264.129 424.562 264.602C424.812 265.076 424.938 265.657 424.938 266.347V272H423.926V266.409C423.926 265.693 423.725 265.127 423.324 264.71C422.926 264.294 422.392 264.085 421.722 264.085C421.263 264.085 420.856 264.184 420.5 264.381C420.144 264.578 419.862 264.862 419.653 265.233C419.449 265.6 419.347 266.038 419.347 266.545ZM435.936 272.159C435.156 272.159 434.459 272.025 433.845 271.756C433.235 271.487 432.752 271.114 432.396 270.636C432.044 270.155 431.855 269.598 431.828 268.966H433.612C433.635 269.311 433.75 269.61 433.959 269.864C434.171 270.114 434.447 270.307 434.788 270.443C435.129 270.58 435.508 270.648 435.925 270.648C436.383 270.648 436.788 270.568 437.141 270.409C437.497 270.25 437.775 270.028 437.976 269.744C438.177 269.456 438.277 269.125 438.277 268.75C438.277 268.36 438.177 268.017 437.976 267.722C437.779 267.422 437.489 267.187 437.107 267.017C436.728 266.847 436.269 266.761 435.732 266.761H434.749V265.33H435.732C436.163 265.33 436.542 265.252 436.868 265.097C437.197 264.941 437.455 264.725 437.641 264.449C437.826 264.169 437.919 263.841 437.919 263.466C437.919 263.106 437.838 262.794 437.675 262.528C437.516 262.259 437.288 262.049 436.993 261.898C436.701 261.746 436.357 261.67 435.959 261.67C435.58 261.67 435.226 261.741 434.896 261.881C434.571 262.017 434.305 262.214 434.101 262.472C433.896 262.725 433.786 263.03 433.771 263.386H432.072C432.091 262.758 432.277 262.205 432.629 261.727C432.985 261.25 433.455 260.877 434.038 260.608C434.622 260.339 435.269 260.205 435.982 260.205C436.728 260.205 437.372 260.35 437.913 260.642C438.459 260.93 438.879 261.314 439.175 261.795C439.474 262.277 439.622 262.803 439.618 263.375C439.622 264.027 439.44 264.58 439.072 265.034C438.709 265.489 438.224 265.794 437.618 265.949V266.04C438.391 266.157 438.989 266.464 439.413 266.96C439.841 267.456 440.054 268.072 440.05 268.807C440.054 269.447 439.875 270.021 439.516 270.528C439.16 271.036 438.673 271.436 438.055 271.727C437.438 272.015 436.732 272.159 435.936 272.159ZM446.249 272.193C445.351 272.189 444.584 271.953 443.947 271.483C443.311 271.013 442.824 270.33 442.487 269.432C442.15 268.534 441.982 267.453 441.982 266.188C441.982 264.926 442.15 263.848 442.487 262.955C442.828 262.061 443.317 261.379 443.953 260.909C444.593 260.439 445.358 260.205 446.249 260.205C447.139 260.205 447.902 260.441 448.538 260.915C449.175 261.384 449.661 262.066 449.999 262.96C450.339 263.85 450.51 264.926 450.51 266.188C450.51 267.456 450.341 268.54 450.004 269.438C449.667 270.331 449.18 271.015 448.544 271.489C447.908 271.958 447.143 272.193 446.249 272.193ZM446.249 270.676C447.036 270.676 447.652 270.292 448.095 269.523C448.542 268.754 448.766 267.642 448.766 266.188C448.766 265.222 448.663 264.405 448.459 263.739C448.258 263.068 447.968 262.561 447.589 262.216C447.214 261.867 446.768 261.693 446.249 261.693C445.464 261.693 444.849 262.08 444.402 262.852C443.955 263.625 443.73 264.737 443.726 266.188C443.726 267.157 443.826 267.977 444.027 268.648C444.232 269.314 444.521 269.82 444.896 270.165C445.271 270.506 445.722 270.676 446.249 270.676ZM456.783 272V263.273H458.413V264.693H458.521C458.703 264.212 459 263.837 459.413 263.568C459.826 263.295 460.321 263.159 460.896 263.159C461.48 263.159 461.968 263.295 462.362 263.568C462.76 263.841 463.054 264.216 463.243 264.693H463.334C463.542 264.227 463.874 263.856 464.328 263.58C464.783 263.299 465.324 263.159 465.953 263.159C466.745 263.159 467.391 263.407 467.891 263.903C468.394 264.4 468.646 265.148 468.646 266.148V272H466.947V266.307C466.947 265.716 466.786 265.288 466.464 265.023C466.143 264.758 465.758 264.625 465.311 264.625C464.758 264.625 464.328 264.795 464.021 265.136C463.714 265.473 463.561 265.907 463.561 266.438V272H461.868V266.199C461.868 265.725 461.72 265.345 461.425 265.057C461.129 264.769 460.745 264.625 460.271 264.625C459.949 264.625 459.652 264.71 459.379 264.881C459.11 265.047 458.893 265.28 458.726 265.58C458.563 265.879 458.482 266.225 458.482 266.619V272H456.783ZM470.923 272V263.273H472.622V272H470.923ZM471.781 261.926C471.486 261.926 471.232 261.828 471.02 261.631C470.812 261.43 470.707 261.191 470.707 260.915C470.707 260.634 470.812 260.396 471.02 260.199C471.232 259.998 471.486 259.898 471.781 259.898C472.077 259.898 472.329 259.998 472.537 260.199C472.749 260.396 472.855 260.634 472.855 260.915C472.855 261.191 472.749 261.43 472.537 261.631C472.329 261.828 472.077 261.926 471.781 261.926ZM476.607 266.818V272H474.908V263.273H476.538V264.693H476.646C476.847 264.231 477.161 263.86 477.589 263.58C478.021 263.299 478.565 263.159 479.22 263.159C479.815 263.159 480.336 263.284 480.783 263.534C481.23 263.78 481.576 264.148 481.822 264.636C482.069 265.125 482.192 265.729 482.192 266.449V272H480.493V266.653C480.493 266.021 480.328 265.527 479.999 265.17C479.669 264.811 479.216 264.631 478.641 264.631C478.247 264.631 477.896 264.716 477.589 264.886C477.286 265.057 477.046 265.307 476.868 265.636C476.694 265.962 476.607 266.356 476.607 266.818ZM489.999 268.381V263.273H491.703V272H490.033V270.489H489.942C489.741 270.955 489.419 271.343 488.976 271.653C488.536 271.96 487.989 272.114 487.334 272.114C486.773 272.114 486.277 271.991 485.845 271.744C485.417 271.494 485.08 271.125 484.834 270.636C484.591 270.148 484.47 269.544 484.47 268.824V263.273H486.169V268.619C486.169 269.214 486.334 269.687 486.663 270.04C486.993 270.392 487.421 270.568 487.947 270.568C488.266 270.568 488.582 270.489 488.896 270.33C489.214 270.17 489.478 269.93 489.686 269.608C489.898 269.286 490.002 268.877 489.999 268.381ZM498.06 263.273V264.636H493.293V263.273H498.06ZM494.571 261.182H496.27V269.438C496.27 269.767 496.319 270.015 496.418 270.182C496.516 270.345 496.643 270.456 496.798 270.517C496.957 270.574 497.13 270.602 497.315 270.602C497.452 270.602 497.571 270.593 497.673 270.574C497.776 270.555 497.855 270.54 497.912 270.528L498.219 271.932C498.12 271.97 497.98 272.008 497.798 272.045C497.616 272.087 497.389 272.11 497.116 272.114C496.67 272.121 496.253 272.042 495.866 271.875C495.48 271.708 495.168 271.451 494.929 271.102C494.69 270.754 494.571 270.316 494.571 269.79V261.182ZM503.607 272.176C502.747 272.176 502.006 271.992 501.385 271.625C500.768 271.254 500.29 270.733 499.953 270.062C499.62 269.388 499.453 268.598 499.453 267.693C499.453 266.799 499.62 266.011 499.953 265.33C500.29 264.648 500.76 264.116 501.362 263.733C501.968 263.35 502.677 263.159 503.487 263.159C503.98 263.159 504.457 263.241 504.919 263.403C505.381 263.566 505.796 263.822 506.163 264.17C506.531 264.519 506.821 264.972 507.033 265.528C507.245 266.081 507.351 266.754 507.351 267.545V268.148H500.413V266.875H505.686C505.686 266.428 505.595 266.032 505.413 265.688C505.232 265.339 504.976 265.064 504.646 264.864C504.321 264.663 503.938 264.562 503.499 264.562C503.021 264.562 502.605 264.68 502.249 264.915C501.896 265.146 501.624 265.449 501.43 265.824C501.241 266.195 501.146 266.598 501.146 267.034V268.028C501.146 268.612 501.249 269.108 501.453 269.517C501.661 269.926 501.951 270.239 502.322 270.455C502.694 270.667 503.127 270.773 503.624 270.773C503.946 270.773 504.239 270.727 504.504 270.636C504.769 270.542 504.999 270.402 505.192 270.216C505.385 270.03 505.533 269.801 505.635 269.528L507.243 269.818C507.114 270.292 506.883 270.706 506.55 271.062C506.22 271.415 505.805 271.689 505.305 271.886C504.809 272.08 504.243 272.176 503.607 272.176ZM515.776 265.403L514.236 265.676C514.171 265.479 514.069 265.292 513.929 265.114C513.793 264.936 513.607 264.79 513.372 264.676C513.137 264.562 512.844 264.506 512.491 264.506C512.01 264.506 511.609 264.614 511.287 264.83C510.965 265.042 510.804 265.316 510.804 265.653C510.804 265.945 510.912 266.18 511.128 266.358C511.344 266.536 511.692 266.682 512.173 266.795L513.56 267.114C514.363 267.299 514.961 267.585 515.355 267.972C515.749 268.358 515.946 268.86 515.946 269.477C515.946 270 515.795 270.466 515.491 270.875C515.192 271.28 514.774 271.598 514.236 271.83C513.702 272.061 513.082 272.176 512.378 272.176C511.401 272.176 510.603 271.968 509.986 271.551C509.368 271.131 508.99 270.534 508.849 269.761L510.491 269.511C510.594 269.939 510.804 270.263 511.122 270.483C511.44 270.699 511.855 270.807 512.366 270.807C512.923 270.807 513.368 270.691 513.702 270.46C514.035 270.225 514.202 269.939 514.202 269.602C514.202 269.33 514.099 269.1 513.895 268.915C513.694 268.729 513.385 268.589 512.969 268.494L511.491 268.17C510.677 267.985 510.075 267.689 509.685 267.284C509.298 266.879 509.105 266.366 509.105 265.744C509.105 265.229 509.249 264.778 509.537 264.392C509.825 264.006 510.223 263.705 510.73 263.489C511.238 263.269 511.819 263.159 512.474 263.159C513.418 263.159 514.16 263.364 514.702 263.773C515.243 264.178 515.601 264.722 515.776 265.403Z" fill="black"/>
<path d="M236.783 347.364H238.01L241.459 352.886H241.561L245.01 347.364H246.237L242.038 353.96V359H240.982V353.96L236.783 347.364ZM250.18 359.182C249.427 359.182 248.76 358.991 248.18 358.608C247.605 358.225 247.154 357.697 246.828 357.023C246.502 356.345 246.339 355.562 246.339 354.676C246.339 353.782 246.502 352.996 246.828 352.318C247.154 351.636 247.605 351.106 248.18 350.727C248.76 350.345 249.427 350.153 250.18 350.153C250.934 350.153 251.599 350.345 252.175 350.727C252.75 351.11 253.201 351.64 253.527 352.318C253.857 352.996 254.021 353.782 254.021 354.676C254.021 355.562 253.858 356.345 253.533 357.023C253.207 357.697 252.754 358.225 252.175 358.608C251.599 358.991 250.934 359.182 250.18 359.182ZM250.18 358.256C250.786 358.256 251.3 358.093 251.72 357.767C252.141 357.441 252.459 357.008 252.675 356.466C252.894 355.924 253.004 355.328 253.004 354.676C253.004 354.025 252.894 353.426 252.675 352.881C252.459 352.335 252.141 351.898 251.72 351.568C251.3 351.239 250.786 351.074 250.18 351.074C249.578 351.074 249.065 351.239 248.641 351.568C248.22 351.898 247.9 352.335 247.68 352.881C247.464 353.426 247.357 354.025 247.357 354.676C247.357 355.328 247.464 355.924 247.68 356.466C247.9 357.008 248.22 357.441 248.641 357.767C249.061 358.093 249.574 358.256 250.18 358.256ZM261.787 355.665V350.273H262.798V359H261.787V357.551H261.707C261.503 357.998 261.179 358.371 260.736 358.67C260.293 358.966 259.751 359.114 259.111 359.114C258.554 359.114 258.06 358.992 257.628 358.75C257.196 358.504 256.857 358.144 256.611 357.67C256.365 357.197 256.241 356.616 256.241 355.926V350.273H257.253V355.864C257.253 356.545 257.454 357.095 257.855 357.511C258.257 357.924 258.772 358.131 259.401 358.131C259.795 358.131 260.173 358.036 260.537 357.847C260.901 357.657 261.2 357.381 261.435 357.017C261.67 356.65 261.787 356.199 261.787 355.665ZM265.476 359V350.273H266.459V351.614H266.533C266.707 351.174 267.01 350.82 267.442 350.551C267.877 350.278 268.37 350.142 268.919 350.142C269.002 350.142 269.095 350.144 269.197 350.148C269.3 350.152 269.385 350.155 269.453 350.159V351.188C269.408 351.18 269.328 351.169 269.214 351.153C269.101 351.138 268.978 351.131 268.845 351.131C268.391 351.131 267.985 351.227 267.629 351.42C267.277 351.61 266.999 351.873 266.794 352.21C266.589 352.547 266.487 352.932 266.487 353.364V359H265.476ZM279.071 359.182C278.317 359.182 277.651 358.991 277.071 358.608C276.495 358.225 276.045 357.697 275.719 357.023C275.393 356.345 275.23 355.562 275.23 354.676C275.23 353.782 275.393 352.996 275.719 352.318C276.045 351.636 276.495 351.106 277.071 350.727C277.651 350.345 278.317 350.153 279.071 350.153C279.825 350.153 280.49 350.345 281.065 350.727C281.641 351.11 282.092 351.64 282.418 352.318C282.747 352.996 282.912 353.782 282.912 354.676C282.912 355.562 282.749 356.345 282.423 357.023C282.098 357.697 281.645 358.225 281.065 358.608C280.49 358.991 279.825 359.182 279.071 359.182ZM279.071 358.256C279.677 358.256 280.19 358.093 280.611 357.767C281.031 357.441 281.349 357.008 281.565 356.466C281.785 355.924 281.895 355.328 281.895 354.676C281.895 354.025 281.785 353.426 281.565 352.881C281.349 352.335 281.031 351.898 280.611 351.568C280.19 351.239 279.677 351.074 279.071 351.074C278.469 351.074 277.955 351.239 277.531 351.568C277.111 351.898 276.791 352.335 276.571 352.881C276.355 353.426 276.247 354.025 276.247 354.676C276.247 355.328 276.355 355.924 276.571 356.466C276.791 357.008 277.111 357.441 277.531 357.767C277.952 358.093 278.465 358.256 279.071 358.256ZM285.132 359V350.273H286.115V351.614H286.189C286.363 351.174 286.666 350.82 287.098 350.551C287.534 350.278 288.026 350.142 288.575 350.142C288.659 350.142 288.751 350.144 288.854 350.148C288.956 350.152 289.041 350.155 289.109 350.159V351.188C289.064 351.18 288.984 351.169 288.871 351.153C288.757 351.138 288.634 351.131 288.501 351.131C288.047 351.131 287.642 351.227 287.286 351.42C286.933 351.61 286.655 351.873 286.45 352.21C286.246 352.547 286.143 352.932 286.143 353.364V359H285.132ZM293.712 359.182C292.996 359.182 292.369 358.992 291.831 358.614C291.293 358.235 290.873 357.706 290.57 357.028C290.27 356.35 290.121 355.561 290.121 354.659C290.121 353.761 290.27 352.975 290.57 352.301C290.873 351.623 291.295 351.097 291.837 350.722C292.378 350.343 293.009 350.153 293.729 350.153C294.259 350.153 294.7 350.248 295.053 350.438C295.405 350.623 295.687 350.854 295.899 351.131C296.111 351.407 296.276 351.676 296.393 351.938H296.484V347.364H297.501V359H296.513V357.381H296.393C296.276 357.646 296.109 357.919 295.893 358.199C295.678 358.475 295.392 358.708 295.036 358.898C294.683 359.087 294.242 359.182 293.712 359.182ZM293.831 358.256C294.395 358.256 294.876 358.102 295.274 357.795C295.672 357.485 295.975 357.059 296.183 356.517C296.395 355.972 296.501 355.347 296.501 354.642C296.501 353.945 296.397 353.33 296.189 352.795C295.981 352.258 295.678 351.837 295.28 351.534C294.882 351.227 294.399 351.074 293.831 351.074C293.248 351.074 292.755 351.233 292.354 351.551C291.956 351.866 291.653 352.292 291.445 352.83C291.24 353.367 291.138 353.972 291.138 354.642C291.138 355.32 291.242 355.932 291.45 356.477C291.659 357.023 291.962 357.456 292.359 357.778C292.761 358.097 293.251 358.256 293.831 358.256ZM303.911 359.182C303.096 359.182 302.392 358.992 301.797 358.614C301.202 358.231 300.742 357.703 300.416 357.028C300.094 356.35 299.933 355.57 299.933 354.688C299.933 353.809 300.094 353.028 300.416 352.347C300.742 351.661 301.191 351.125 301.763 350.739C302.339 350.348 303.003 350.153 303.757 350.153C304.231 350.153 304.687 350.241 305.126 350.415C305.566 350.585 305.96 350.848 306.308 351.205C306.661 351.557 306.939 352.002 307.143 352.54C307.348 353.074 307.45 353.706 307.45 354.438V354.938H300.632V354.045H306.416C306.416 353.485 306.303 352.981 306.075 352.534C305.852 352.083 305.539 351.727 305.138 351.466C304.74 351.205 304.28 351.074 303.757 351.074C303.204 351.074 302.717 351.222 302.297 351.517C301.876 351.812 301.547 352.203 301.308 352.688C301.073 353.172 300.954 353.703 300.95 354.278V354.812C300.95 355.506 301.07 356.112 301.308 356.631C301.551 357.146 301.893 357.545 302.337 357.83C302.78 358.114 303.304 358.256 303.911 358.256C304.323 358.256 304.685 358.191 304.996 358.062C305.31 357.934 305.573 357.761 305.786 357.545C306.001 357.326 306.164 357.085 306.274 356.824L307.234 357.136C307.102 357.504 306.884 357.843 306.581 358.153C306.282 358.464 305.907 358.714 305.456 358.903C305.009 359.089 304.494 359.182 303.911 359.182ZM309.679 359V350.273H310.662V351.614H310.736C310.91 351.174 311.213 350.82 311.645 350.551C312.08 350.278 312.573 350.142 313.122 350.142C313.205 350.142 313.298 350.144 313.401 350.148C313.503 350.152 313.588 350.155 313.656 350.159V351.188C313.611 351.18 313.531 351.169 313.418 351.153C313.304 351.138 313.181 351.131 313.048 351.131C312.594 351.131 312.188 351.227 311.832 351.42C311.48 351.61 311.202 351.873 310.997 352.21C310.793 352.547 310.69 352.932 310.69 353.364V359H309.679ZM321.82 359L319.183 350.273H320.251L322.32 357.472H322.393L324.456 350.273H325.53L327.575 357.455H327.655L329.723 350.273H330.791L328.155 359H327.109L325.041 351.847H324.933L322.865 359H321.82ZM332.768 359V350.273H333.786V359H332.768ZM333.286 348.773C333.077 348.773 332.899 348.703 332.751 348.562C332.604 348.419 332.53 348.246 332.53 348.045C332.53 347.845 332.604 347.674 332.751 347.534C332.899 347.39 333.077 347.318 333.286 347.318C333.494 347.318 333.672 347.39 333.82 347.534C333.967 347.674 334.041 347.845 334.041 348.045C334.041 348.246 333.967 348.419 333.82 348.562C333.672 348.703 333.494 348.773 333.286 348.773ZM337.472 347.364V359H336.46V347.364H337.472ZM341.159 347.364V359H340.148V347.364H341.159ZM348.545 359V347.364H349.562V351.938H349.653C349.767 351.676 349.93 351.407 350.142 351.131C350.358 350.854 350.64 350.623 350.989 350.438C351.341 350.248 351.784 350.153 352.318 350.153C353.034 350.153 353.663 350.343 354.205 350.722C354.746 351.097 355.169 351.623 355.472 352.301C355.775 352.975 355.926 353.761 355.926 354.659C355.926 355.561 355.775 356.35 355.472 357.028C355.172 357.706 354.752 358.235 354.21 358.614C353.672 358.992 353.047 359.182 352.335 359.182C351.805 359.182 351.362 359.087 351.006 358.898C350.653 358.708 350.369 358.475 350.153 358.199C349.938 357.919 349.771 357.646 349.653 357.381H349.528V359H348.545ZM349.545 354.642C349.545 355.347 349.65 355.972 349.858 356.517C350.07 357.059 350.373 357.485 350.767 357.795C351.165 358.102 351.646 358.256 352.21 358.256C352.79 358.256 353.28 358.097 353.682 357.778C354.083 357.456 354.388 357.023 354.597 356.477C354.805 355.932 354.909 355.32 354.909 354.642C354.909 353.972 354.805 353.367 354.597 352.83C354.392 352.292 354.089 351.866 353.688 351.551C353.286 351.233 352.794 351.074 352.21 351.074C351.642 351.074 351.159 351.227 350.761 351.534C350.367 351.837 350.066 352.258 349.858 352.795C349.65 353.33 349.545 353.945 349.545 354.642ZM361.676 359.182C360.862 359.182 360.157 358.992 359.562 358.614C358.968 358.231 358.508 357.703 358.182 357.028C357.86 356.35 357.699 355.57 357.699 354.688C357.699 353.809 357.86 353.028 358.182 352.347C358.508 351.661 358.956 351.125 359.528 350.739C360.104 350.348 360.769 350.153 361.523 350.153C361.996 350.153 362.453 350.241 362.892 350.415C363.331 350.585 363.725 350.848 364.074 351.205C364.426 351.557 364.705 352.002 364.909 352.54C365.114 353.074 365.216 353.706 365.216 354.438V354.938H358.398V354.045H364.182C364.182 353.485 364.068 352.981 363.841 352.534C363.617 352.083 363.305 351.727 362.903 351.466C362.506 351.205 362.045 351.074 361.523 351.074C360.97 351.074 360.483 351.222 360.062 351.517C359.642 351.812 359.313 352.203 359.074 352.688C358.839 353.172 358.72 353.703 358.716 354.278V354.812C358.716 355.506 358.835 356.112 359.074 356.631C359.316 357.146 359.659 357.545 360.102 357.83C360.545 358.114 361.07 358.256 361.676 358.256C362.089 358.256 362.451 358.191 362.761 358.062C363.076 357.934 363.339 357.761 363.551 357.545C363.767 357.326 363.93 357.085 364.04 356.824L365 357.136C364.867 357.504 364.65 357.843 364.347 358.153C364.047 358.464 363.672 358.714 363.222 358.903C362.775 359.089 362.259 359.182 361.676 359.182ZM371.945 359V350.273H372.928V351.614H373.001C373.176 351.174 373.479 350.82 373.911 350.551C374.346 350.278 374.839 350.142 375.388 350.142C375.471 350.142 375.564 350.144 375.666 350.148C375.768 350.152 375.854 350.155 375.922 350.159V351.188C375.876 351.18 375.797 351.169 375.683 351.153C375.57 351.138 375.446 351.131 375.314 351.131C374.859 351.131 374.454 351.227 374.098 351.42C373.746 351.61 373.467 351.873 373.263 352.21C373.058 352.547 372.956 352.932 372.956 353.364V359H371.945ZM380.911 359.182C380.096 359.182 379.392 358.992 378.797 358.614C378.202 358.231 377.742 357.703 377.416 357.028C377.094 356.35 376.933 355.57 376.933 354.688C376.933 353.809 377.094 353.028 377.416 352.347C377.742 351.661 378.191 351.125 378.763 350.739C379.339 350.348 380.003 350.153 380.757 350.153C381.231 350.153 381.687 350.241 382.126 350.415C382.566 350.585 382.96 350.848 383.308 351.205C383.661 351.557 383.939 352.002 384.143 352.54C384.348 353.074 384.45 353.706 384.45 354.438V354.938H377.632V354.045H383.416C383.416 353.485 383.303 352.981 383.075 352.534C382.852 352.083 382.539 351.727 382.138 351.466C381.74 351.205 381.28 351.074 380.757 351.074C380.204 351.074 379.717 351.222 379.297 351.517C378.876 351.812 378.547 352.203 378.308 352.688C378.073 353.172 377.954 353.703 377.95 354.278V354.812C377.95 355.506 378.07 356.112 378.308 356.631C378.551 357.146 378.893 357.545 379.337 357.83C379.78 358.114 380.304 358.256 380.911 358.256C381.323 358.256 381.685 358.191 381.996 358.062C382.31 357.934 382.573 357.761 382.786 357.545C383.001 357.326 383.164 357.085 383.274 356.824L384.234 357.136C384.102 357.504 383.884 357.843 383.581 358.153C383.282 358.464 382.907 358.714 382.456 358.903C382.009 359.089 381.494 359.182 380.911 359.182ZM389.116 359.199C388.59 359.199 388.109 359.097 387.673 358.892C387.238 358.684 386.891 358.384 386.634 357.994C386.376 357.6 386.247 357.123 386.247 356.562C386.247 356.131 386.329 355.767 386.491 355.472C386.654 355.176 386.885 354.934 387.185 354.744C387.484 354.555 387.838 354.405 388.247 354.295C388.656 354.186 389.107 354.1 389.599 354.04C390.088 353.979 390.501 353.926 390.838 353.881C391.179 353.835 391.438 353.763 391.616 353.665C391.795 353.566 391.884 353.407 391.884 353.188V352.983C391.884 352.388 391.705 351.92 391.349 351.58C390.997 351.235 390.49 351.062 389.827 351.062C389.198 351.062 388.685 351.201 388.287 351.477C387.893 351.754 387.616 352.08 387.457 352.455L386.497 352.108C386.694 351.631 386.967 351.25 387.315 350.966C387.664 350.678 388.054 350.472 388.486 350.347C388.918 350.218 389.355 350.153 389.798 350.153C390.132 350.153 390.478 350.197 390.838 350.284C391.202 350.371 391.539 350.523 391.849 350.739C392.16 350.951 392.412 351.248 392.605 351.631C392.798 352.009 392.895 352.491 392.895 353.074V359H391.884V357.619H391.821C391.7 357.877 391.52 358.127 391.281 358.369C391.043 358.612 390.743 358.811 390.384 358.966C390.024 359.121 389.601 359.199 389.116 359.199ZM389.253 358.273C389.791 358.273 390.257 358.153 390.651 357.915C391.045 357.676 391.348 357.36 391.56 356.966C391.776 356.568 391.884 356.131 391.884 355.653V354.392C391.808 354.464 391.681 354.528 391.503 354.585C391.329 354.642 391.126 354.693 390.895 354.739C390.668 354.78 390.44 354.816 390.213 354.847C389.986 354.877 389.781 354.903 389.599 354.926C389.107 354.987 388.687 355.081 388.338 355.21C387.99 355.339 387.723 355.517 387.537 355.744C387.351 355.968 387.259 356.256 387.259 356.608C387.259 357.138 387.448 357.549 387.827 357.841C388.205 358.129 388.681 358.273 389.253 358.273ZM398.727 359.182C398.011 359.182 397.384 358.992 396.847 358.614C396.309 358.235 395.888 357.706 395.585 357.028C395.286 356.35 395.136 355.561 395.136 354.659C395.136 353.761 395.286 352.975 395.585 352.301C395.888 351.623 396.311 351.097 396.852 350.722C397.394 350.343 398.025 350.153 398.744 350.153C399.275 350.153 399.716 350.248 400.068 350.438C400.42 350.623 400.703 350.854 400.915 351.131C401.127 351.407 401.292 351.676 401.409 351.938H401.5V347.364H402.517V359H401.528V357.381H401.409C401.292 357.646 401.125 357.919 400.909 358.199C400.693 358.475 400.407 358.708 400.051 358.898C399.699 359.087 399.258 359.182 398.727 359.182ZM398.847 358.256C399.411 358.256 399.892 358.102 400.29 357.795C400.688 357.485 400.991 357.059 401.199 356.517C401.411 355.972 401.517 355.347 401.517 354.642C401.517 353.945 401.413 353.33 401.205 352.795C400.996 352.258 400.693 351.837 400.295 351.534C399.898 351.227 399.415 351.074 398.847 351.074C398.263 351.074 397.771 351.233 397.369 351.551C396.972 351.866 396.669 352.292 396.46 352.83C396.256 353.367 396.153 353.972 396.153 354.642C396.153 355.32 396.258 355.932 396.466 356.477C396.674 357.023 396.977 357.456 397.375 357.778C397.777 358.097 398.267 358.256 398.847 358.256ZM406.102 362.273C405.902 362.273 405.714 362.254 405.54 362.216C405.366 362.178 405.227 362.136 405.125 362.091L405.398 361.199C405.742 361.305 406.049 361.343 406.318 361.312C406.587 361.286 406.826 361.165 407.034 360.949C407.242 360.737 407.428 360.411 407.591 359.972L407.909 359.085L404.699 350.273H405.795L408.386 357.665H408.466L411.057 350.273H412.153L408.46 360.381C408.305 360.801 408.114 361.152 407.886 361.432C407.659 361.716 407.396 361.926 407.097 362.062C406.801 362.203 406.47 362.273 406.102 362.273ZM418.643 359V350.273H419.661V359H418.643ZM419.161 348.773C418.952 348.773 418.774 348.703 418.626 348.562C418.479 348.419 418.405 348.246 418.405 348.045C418.405 347.845 418.479 347.674 418.626 347.534C418.774 347.39 418.952 347.318 419.161 347.318C419.369 347.318 419.547 347.39 419.695 347.534C419.842 347.674 419.916 347.845 419.916 348.045C419.916 348.246 419.842 348.419 419.695 348.562C419.547 348.703 419.369 348.773 419.161 348.773ZM423.347 353.545V359H422.335V350.273H423.318V351.642H423.409C423.614 351.195 423.932 350.837 424.364 350.568C424.799 350.295 425.337 350.159 425.977 350.159C426.564 350.159 427.08 350.282 427.523 350.528C427.97 350.771 428.316 351.129 428.562 351.602C428.812 352.076 428.938 352.657 428.938 353.347V359H427.926V353.409C427.926 352.693 427.725 352.127 427.324 351.71C426.926 351.294 426.392 351.085 425.722 351.085C425.263 351.085 424.856 351.184 424.5 351.381C424.144 351.578 423.862 351.862 423.653 352.233C423.449 352.6 423.347 353.038 423.347 353.545ZM439.936 359.159C439.156 359.159 438.459 359.025 437.845 358.756C437.235 358.487 436.752 358.114 436.396 357.636C436.044 357.155 435.855 356.598 435.828 355.966H437.612C437.635 356.311 437.75 356.61 437.959 356.864C438.171 357.114 438.447 357.307 438.788 357.443C439.129 357.58 439.508 357.648 439.925 357.648C440.383 357.648 440.788 357.568 441.141 357.409C441.497 357.25 441.775 357.028 441.976 356.744C442.177 356.456 442.277 356.125 442.277 355.75C442.277 355.36 442.177 355.017 441.976 354.722C441.779 354.422 441.489 354.187 441.107 354.017C440.728 353.847 440.269 353.761 439.732 353.761H438.749V352.33H439.732C440.163 352.33 440.542 352.252 440.868 352.097C441.197 351.941 441.455 351.725 441.641 351.449C441.826 351.169 441.919 350.841 441.919 350.466C441.919 350.106 441.838 349.794 441.675 349.528C441.516 349.259 441.288 349.049 440.993 348.898C440.701 348.746 440.357 348.67 439.959 348.67C439.58 348.67 439.226 348.741 438.896 348.881C438.571 349.017 438.305 349.214 438.101 349.472C437.896 349.725 437.786 350.03 437.771 350.386H436.072C436.091 349.758 436.277 349.205 436.629 348.727C436.985 348.25 437.455 347.877 438.038 347.608C438.622 347.339 439.269 347.205 439.982 347.205C440.728 347.205 441.372 347.35 441.913 347.642C442.459 347.93 442.879 348.314 443.175 348.795C443.474 349.277 443.622 349.803 443.618 350.375C443.622 351.027 443.44 351.58 443.072 352.034C442.709 352.489 442.224 352.794 441.618 352.949V353.04C442.391 353.157 442.989 353.464 443.413 353.96C443.841 354.456 444.054 355.072 444.05 355.807C444.054 356.447 443.875 357.021 443.516 357.528C443.16 358.036 442.673 358.436 442.055 358.727C441.438 359.015 440.732 359.159 439.936 359.159ZM450.249 359.193C449.351 359.189 448.584 358.953 447.947 358.483C447.311 358.013 446.824 357.33 446.487 356.432C446.15 355.534 445.982 354.453 445.982 353.188C445.982 351.926 446.15 350.848 446.487 349.955C446.828 349.061 447.317 348.379 447.953 347.909C448.593 347.439 449.358 347.205 450.249 347.205C451.139 347.205 451.902 347.441 452.538 347.915C453.175 348.384 453.661 349.066 453.999 349.96C454.339 350.85 454.51 351.926 454.51 353.188C454.51 354.456 454.341 355.54 454.004 356.438C453.667 357.331 453.18 358.015 452.544 358.489C451.908 358.958 451.143 359.193 450.249 359.193ZM450.249 357.676C451.036 357.676 451.652 357.292 452.095 356.523C452.542 355.754 452.766 354.642 452.766 353.188C452.766 352.222 452.663 351.405 452.459 350.739C452.258 350.068 451.968 349.561 451.589 349.216C451.214 348.867 450.768 348.693 450.249 348.693C449.464 348.693 448.849 349.08 448.402 349.852C447.955 350.625 447.73 351.737 447.726 353.188C447.726 354.157 447.826 354.977 448.027 355.648C448.232 356.314 448.521 356.82 448.896 357.165C449.271 357.506 449.722 357.676 450.249 357.676ZM460.783 359V350.273H462.413V351.693H462.521C462.703 351.212 463 350.837 463.413 350.568C463.826 350.295 464.321 350.159 464.896 350.159C465.48 350.159 465.968 350.295 466.362 350.568C466.76 350.841 467.054 351.216 467.243 351.693H467.334C467.542 351.227 467.874 350.856 468.328 350.58C468.783 350.299 469.324 350.159 469.953 350.159C470.745 350.159 471.391 350.407 471.891 350.903C472.394 351.4 472.646 352.148 472.646 353.148V359H470.947V353.307C470.947 352.716 470.786 352.288 470.464 352.023C470.143 351.758 469.758 351.625 469.311 351.625C468.758 351.625 468.328 351.795 468.021 352.136C467.714 352.473 467.561 352.907 467.561 353.438V359H465.868V353.199C465.868 352.725 465.72 352.345 465.425 352.057C465.129 351.769 464.745 351.625 464.271 351.625C463.949 351.625 463.652 351.71 463.379 351.881C463.11 352.047 462.893 352.28 462.726 352.58C462.563 352.879 462.482 353.225 462.482 353.619V359H460.783ZM474.923 359V350.273H476.622V359H474.923ZM475.781 348.926C475.486 348.926 475.232 348.828 475.02 348.631C474.812 348.43 474.707 348.191 474.707 347.915C474.707 347.634 474.812 347.396 475.02 347.199C475.232 346.998 475.486 346.898 475.781 346.898C476.077 346.898 476.329 346.998 476.537 347.199C476.749 347.396 476.855 347.634 476.855 347.915C476.855 348.191 476.749 348.43 476.537 348.631C476.329 348.828 476.077 348.926 475.781 348.926ZM480.607 353.818V359H478.908V350.273H480.538V351.693H480.646C480.847 351.231 481.161 350.86 481.589 350.58C482.021 350.299 482.565 350.159 483.22 350.159C483.815 350.159 484.336 350.284 484.783 350.534C485.23 350.78 485.576 351.148 485.822 351.636C486.069 352.125 486.192 352.729 486.192 353.449V359H484.493V353.653C484.493 353.021 484.328 352.527 483.999 352.17C483.669 351.811 483.216 351.631 482.641 351.631C482.247 351.631 481.896 351.716 481.589 351.886C481.286 352.057 481.046 352.307 480.868 352.636C480.694 352.962 480.607 353.356 480.607 353.818ZM493.999 355.381V350.273H495.703V359H494.033V357.489H493.942C493.741 357.955 493.419 358.343 492.976 358.653C492.536 358.96 491.989 359.114 491.334 359.114C490.773 359.114 490.277 358.991 489.845 358.744C489.417 358.494 489.08 358.125 488.834 357.636C488.591 357.148 488.47 356.544 488.47 355.824V350.273H490.169V355.619C490.169 356.214 490.334 356.687 490.663 357.04C490.993 357.392 491.421 357.568 491.947 357.568C492.266 357.568 492.582 357.489 492.896 357.33C493.214 357.17 493.478 356.93 493.686 356.608C493.898 356.286 494.002 355.877 493.999 355.381ZM502.06 350.273V351.636H497.293V350.273H502.06ZM498.571 348.182H500.27V356.438C500.27 356.767 500.319 357.015 500.418 357.182C500.516 357.345 500.643 357.456 500.798 357.517C500.957 357.574 501.13 357.602 501.315 357.602C501.452 357.602 501.571 357.593 501.673 357.574C501.776 357.555 501.855 357.54 501.912 357.528L502.219 358.932C502.12 358.97 501.98 359.008 501.798 359.045C501.616 359.087 501.389 359.11 501.116 359.114C500.67 359.121 500.253 359.042 499.866 358.875C499.48 358.708 499.168 358.451 498.929 358.102C498.69 357.754 498.571 357.316 498.571 356.79V348.182ZM507.607 359.176C506.747 359.176 506.006 358.992 505.385 358.625C504.768 358.254 504.29 357.733 503.953 357.062C503.62 356.388 503.453 355.598 503.453 354.693C503.453 353.799 503.62 353.011 503.953 352.33C504.29 351.648 504.76 351.116 505.362 350.733C505.968 350.35 506.677 350.159 507.487 350.159C507.98 350.159 508.457 350.241 508.919 350.403C509.381 350.566 509.796 350.822 510.163 351.17C510.531 351.519 510.821 351.972 511.033 352.528C511.245 353.081 511.351 353.754 511.351 354.545V355.148H504.413V353.875H509.686C509.686 353.428 509.595 353.032 509.413 352.688C509.232 352.339 508.976 352.064 508.646 351.864C508.321 351.663 507.938 351.562 507.499 351.562C507.021 351.562 506.605 351.68 506.249 351.915C505.896 352.146 505.624 352.449 505.43 352.824C505.241 353.195 505.146 353.598 505.146 354.034V355.028C505.146 355.612 505.249 356.108 505.453 356.517C505.661 356.926 505.951 357.239 506.322 357.455C506.694 357.667 507.127 357.773 507.624 357.773C507.946 357.773 508.239 357.727 508.504 357.636C508.769 357.542 508.999 357.402 509.192 357.216C509.385 357.03 509.533 356.801 509.635 356.528L511.243 356.818C511.114 357.292 510.883 357.706 510.55 358.062C510.22 358.415 509.805 358.689 509.305 358.886C508.809 359.08 508.243 359.176 507.607 359.176ZM519.776 352.403L518.236 352.676C518.171 352.479 518.069 352.292 517.929 352.114C517.793 351.936 517.607 351.79 517.372 351.676C517.137 351.562 516.844 351.506 516.491 351.506C516.01 351.506 515.609 351.614 515.287 351.83C514.965 352.042 514.804 352.316 514.804 352.653C514.804 352.945 514.912 353.18 515.128 353.358C515.344 353.536 515.692 353.682 516.173 353.795L517.56 354.114C518.363 354.299 518.961 354.585 519.355 354.972C519.749 355.358 519.946 355.86 519.946 356.477C519.946 357 519.795 357.466 519.491 357.875C519.192 358.28 518.774 358.598 518.236 358.83C517.702 359.061 517.082 359.176 516.378 359.176C515.401 359.176 514.603 358.968 513.986 358.551C513.368 358.131 512.99 357.534 512.849 356.761L514.491 356.511C514.594 356.939 514.804 357.263 515.122 357.483C515.44 357.699 515.855 357.807 516.366 357.807C516.923 357.807 517.368 357.691 517.702 357.46C518.035 357.225 518.202 356.939 518.202 356.602C518.202 356.33 518.099 356.1 517.895 355.915C517.694 355.729 517.385 355.589 516.969 355.494L515.491 355.17C514.677 354.985 514.075 354.689 513.685 354.284C513.298 353.879 513.105 353.366 513.105 352.744C513.105 352.229 513.249 351.778 513.537 351.392C513.825 351.006 514.223 350.705 514.73 350.489C515.238 350.269 515.819 350.159 516.474 350.159C517.418 350.159 518.16 350.364 518.702 350.773C519.243 351.178 519.601 351.722 519.776 352.403Z" fill="black"/>
<path d="M231.783 226.364H233.01L236.459 231.886H236.561L240.01 226.364H241.237L237.038 232.96V238H235.982V232.96L231.783 226.364ZM245.18 238.182C244.427 238.182 243.76 237.991 243.18 237.608C242.605 237.225 242.154 236.697 241.828 236.023C241.502 235.345 241.339 234.562 241.339 233.676C241.339 232.782 241.502 231.996 241.828 231.318C242.154 230.636 242.605 230.106 243.18 229.727C243.76 229.345 244.427 229.153 245.18 229.153C245.934 229.153 246.599 229.345 247.175 229.727C247.75 230.11 248.201 230.64 248.527 231.318C248.857 231.996 249.021 232.782 249.021 233.676C249.021 234.562 248.858 235.345 248.533 236.023C248.207 236.697 247.754 237.225 247.175 237.608C246.599 237.991 245.934 238.182 245.18 238.182ZM245.18 237.256C245.786 237.256 246.3 237.093 246.72 236.767C247.141 236.441 247.459 236.008 247.675 235.466C247.894 234.924 248.004 234.328 248.004 233.676C248.004 233.025 247.894 232.426 247.675 231.881C247.459 231.335 247.141 230.898 246.72 230.568C246.3 230.239 245.786 230.074 245.18 230.074C244.578 230.074 244.065 230.239 243.641 230.568C243.22 230.898 242.9 231.335 242.68 231.881C242.464 232.426 242.357 233.025 242.357 233.676C242.357 234.328 242.464 234.924 242.68 235.466C242.9 236.008 243.22 236.441 243.641 236.767C244.061 237.093 244.574 237.256 245.18 237.256ZM256.787 234.665V229.273H257.798V238H256.787V236.551H256.707C256.503 236.998 256.179 237.371 255.736 237.67C255.293 237.966 254.751 238.114 254.111 238.114C253.554 238.114 253.06 237.992 252.628 237.75C252.196 237.504 251.857 237.144 251.611 236.67C251.365 236.197 251.241 235.616 251.241 234.926V229.273H252.253V234.864C252.253 235.545 252.454 236.095 252.855 236.511C253.257 236.924 253.772 237.131 254.401 237.131C254.795 237.131 255.173 237.036 255.537 236.847C255.901 236.657 256.2 236.381 256.435 236.017C256.67 235.65 256.787 235.199 256.787 234.665ZM260.476 238V229.273H261.459V230.614H261.533C261.707 230.174 262.01 229.82 262.442 229.551C262.877 229.278 263.37 229.142 263.919 229.142C264.002 229.142 264.095 229.144 264.197 229.148C264.3 229.152 264.385 229.155 264.453 229.159V230.188C264.408 230.18 264.328 230.169 264.214 230.153C264.101 230.138 263.978 230.131 263.845 230.131C263.391 230.131 262.985 230.227 262.629 230.42C262.277 230.61 261.999 230.873 261.794 231.21C261.589 231.547 261.487 231.932 261.487 232.364V238H260.476ZM274.071 238.182C273.317 238.182 272.651 237.991 272.071 237.608C271.495 237.225 271.045 236.697 270.719 236.023C270.393 235.345 270.23 234.562 270.23 233.676C270.23 232.782 270.393 231.996 270.719 231.318C271.045 230.636 271.495 230.106 272.071 229.727C272.651 229.345 273.317 229.153 274.071 229.153C274.825 229.153 275.49 229.345 276.065 229.727C276.641 230.11 277.092 230.64 277.418 231.318C277.747 231.996 277.912 232.782 277.912 233.676C277.912 234.562 277.749 235.345 277.423 236.023C277.098 236.697 276.645 237.225 276.065 237.608C275.49 237.991 274.825 238.182 274.071 238.182ZM274.071 237.256C274.677 237.256 275.19 237.093 275.611 236.767C276.031 236.441 276.349 236.008 276.565 235.466C276.785 234.924 276.895 234.328 276.895 233.676C276.895 233.025 276.785 232.426 276.565 231.881C276.349 231.335 276.031 230.898 275.611 230.568C275.19 230.239 274.677 230.074 274.071 230.074C273.469 230.074 272.955 230.239 272.531 230.568C272.111 230.898 271.791 231.335 271.571 231.881C271.355 232.426 271.247 233.025 271.247 233.676C271.247 234.328 271.355 234.924 271.571 235.466C271.791 236.008 272.111 236.441 272.531 236.767C272.952 237.093 273.465 237.256 274.071 237.256ZM280.132 238V229.273H281.115V230.614H281.189C281.363 230.174 281.666 229.82 282.098 229.551C282.534 229.278 283.026 229.142 283.575 229.142C283.659 229.142 283.751 229.144 283.854 229.148C283.956 229.152 284.041 229.155 284.109 229.159V230.188C284.064 230.18 283.984 230.169 283.871 230.153C283.757 230.138 283.634 230.131 283.501 230.131C283.047 230.131 282.642 230.227 282.286 230.42C281.933 230.61 281.655 230.873 281.45 231.21C281.246 231.547 281.143 231.932 281.143 232.364V238H280.132ZM288.712 238.182C287.996 238.182 287.369 237.992 286.831 237.614C286.293 237.235 285.873 236.706 285.57 236.028C285.27 235.35 285.121 234.561 285.121 233.659C285.121 232.761 285.27 231.975 285.57 231.301C285.873 230.623 286.295 230.097 286.837 229.722C287.378 229.343 288.009 229.153 288.729 229.153C289.259 229.153 289.7 229.248 290.053 229.438C290.405 229.623 290.687 229.854 290.899 230.131C291.111 230.407 291.276 230.676 291.393 230.938H291.484V226.364H292.501V238H291.513V236.381H291.393C291.276 236.646 291.109 236.919 290.893 237.199C290.678 237.475 290.392 237.708 290.036 237.898C289.683 238.087 289.242 238.182 288.712 238.182ZM288.831 237.256C289.395 237.256 289.876 237.102 290.274 236.795C290.672 236.485 290.975 236.059 291.183 235.517C291.395 234.972 291.501 234.347 291.501 233.642C291.501 232.945 291.397 232.33 291.189 231.795C290.981 231.258 290.678 230.837 290.28 230.534C289.882 230.227 289.399 230.074 288.831 230.074C288.248 230.074 287.755 230.233 287.354 230.551C286.956 230.866 286.653 231.292 286.445 231.83C286.24 232.367 286.138 232.972 286.138 233.642C286.138 234.32 286.242 234.932 286.45 235.477C286.659 236.023 286.962 236.456 287.359 236.778C287.761 237.097 288.251 237.256 288.831 237.256ZM298.911 238.182C298.096 238.182 297.392 237.992 296.797 237.614C296.202 237.231 295.742 236.703 295.416 236.028C295.094 235.35 294.933 234.57 294.933 233.688C294.933 232.809 295.094 232.028 295.416 231.347C295.742 230.661 296.191 230.125 296.763 229.739C297.339 229.348 298.003 229.153 298.757 229.153C299.231 229.153 299.687 229.241 300.126 229.415C300.566 229.585 300.96 229.848 301.308 230.205C301.661 230.557 301.939 231.002 302.143 231.54C302.348 232.074 302.45 232.706 302.45 233.438V233.938H295.632V233.045H301.416C301.416 232.485 301.303 231.981 301.075 231.534C300.852 231.083 300.539 230.727 300.138 230.466C299.74 230.205 299.28 230.074 298.757 230.074C298.204 230.074 297.717 230.222 297.297 230.517C296.876 230.812 296.547 231.203 296.308 231.688C296.073 232.172 295.954 232.703 295.95 233.278V233.812C295.95 234.506 296.07 235.112 296.308 235.631C296.551 236.146 296.893 236.545 297.337 236.83C297.78 237.114 298.304 237.256 298.911 237.256C299.323 237.256 299.685 237.191 299.996 237.062C300.31 236.934 300.573 236.761 300.786 236.545C301.001 236.326 301.164 236.085 301.274 235.824L302.234 236.136C302.102 236.504 301.884 236.843 301.581 237.153C301.282 237.464 300.907 237.714 300.456 237.903C300.009 238.089 299.494 238.182 298.911 238.182ZM304.679 238V229.273H305.662V230.614H305.736C305.91 230.174 306.213 229.82 306.645 229.551C307.08 229.278 307.573 229.142 308.122 229.142C308.205 229.142 308.298 229.144 308.401 229.148C308.503 229.152 308.588 229.155 308.656 229.159V230.188C308.611 230.18 308.531 230.169 308.418 230.153C308.304 230.138 308.181 230.131 308.048 230.131C307.594 230.131 307.188 230.227 306.832 230.42C306.48 230.61 306.202 230.873 305.997 231.21C305.793 231.547 305.69 231.932 305.69 232.364V238H304.679ZM316.82 238L314.183 229.273H315.251L317.32 236.472H317.393L319.456 229.273H320.53L322.575 236.455H322.655L324.723 229.273H325.791L323.155 238H322.109L320.041 230.847H319.933L317.865 238H316.82ZM327.768 238V229.273H328.786V238H327.768ZM328.286 227.773C328.077 227.773 327.899 227.703 327.751 227.562C327.604 227.419 327.53 227.246 327.53 227.045C327.53 226.845 327.604 226.674 327.751 226.534C327.899 226.39 328.077 226.318 328.286 226.318C328.494 226.318 328.672 226.39 328.82 226.534C328.967 226.674 329.041 226.845 329.041 227.045C329.041 227.246 328.967 227.419 328.82 227.562C328.672 227.703 328.494 227.773 328.286 227.773ZM332.472 226.364V238H331.46V226.364H332.472ZM336.159 226.364V238H335.148V226.364H336.159ZM343.545 238V226.364H344.562V230.938H344.653C344.767 230.676 344.93 230.407 345.142 230.131C345.358 229.854 345.64 229.623 345.989 229.438C346.341 229.248 346.784 229.153 347.318 229.153C348.034 229.153 348.663 229.343 349.205 229.722C349.746 230.097 350.169 230.623 350.472 231.301C350.775 231.975 350.926 232.761 350.926 233.659C350.926 234.561 350.775 235.35 350.472 236.028C350.172 236.706 349.752 237.235 349.21 237.614C348.672 237.992 348.047 238.182 347.335 238.182C346.805 238.182 346.362 238.087 346.006 237.898C345.653 237.708 345.369 237.475 345.153 237.199C344.938 236.919 344.771 236.646 344.653 236.381H344.528V238H343.545ZM344.545 233.642C344.545 234.347 344.65 234.972 344.858 235.517C345.07 236.059 345.373 236.485 345.767 236.795C346.165 237.102 346.646 237.256 347.21 237.256C347.79 237.256 348.28 237.097 348.682 236.778C349.083 236.456 349.388 236.023 349.597 235.477C349.805 234.932 349.909 234.32 349.909 233.642C349.909 232.972 349.805 232.367 349.597 231.83C349.392 231.292 349.089 230.866 348.688 230.551C348.286 230.233 347.794 230.074 347.21 230.074C346.642 230.074 346.159 230.227 345.761 230.534C345.367 230.837 345.066 231.258 344.858 231.795C344.65 232.33 344.545 232.945 344.545 233.642ZM356.676 238.182C355.862 238.182 355.157 237.992 354.562 237.614C353.968 237.231 353.508 236.703 353.182 236.028C352.86 235.35 352.699 234.57 352.699 233.688C352.699 232.809 352.86 232.028 353.182 231.347C353.508 230.661 353.956 230.125 354.528 229.739C355.104 229.348 355.769 229.153 356.523 229.153C356.996 229.153 357.453 229.241 357.892 229.415C358.331 229.585 358.725 229.848 359.074 230.205C359.426 230.557 359.705 231.002 359.909 231.54C360.114 232.074 360.216 232.706 360.216 233.438V233.938H353.398V233.045H359.182C359.182 232.485 359.068 231.981 358.841 231.534C358.617 231.083 358.305 230.727 357.903 230.466C357.506 230.205 357.045 230.074 356.523 230.074C355.97 230.074 355.483 230.222 355.062 230.517C354.642 230.812 354.313 231.203 354.074 231.688C353.839 232.172 353.72 232.703 353.716 233.278V233.812C353.716 234.506 353.835 235.112 354.074 235.631C354.316 236.146 354.659 236.545 355.102 236.83C355.545 237.114 356.07 237.256 356.676 237.256C357.089 237.256 357.451 237.191 357.761 237.062C358.076 236.934 358.339 236.761 358.551 236.545C358.767 236.326 358.93 236.085 359.04 235.824L360 236.136C359.867 236.504 359.65 236.843 359.347 237.153C359.047 237.464 358.672 237.714 358.222 237.903C357.775 238.089 357.259 238.182 356.676 238.182ZM366.945 238V229.273H367.928V230.614H368.001C368.176 230.174 368.479 229.82 368.911 229.551C369.346 229.278 369.839 229.142 370.388 229.142C370.471 229.142 370.564 229.144 370.666 229.148C370.768 229.152 370.854 229.155 370.922 229.159V230.188C370.876 230.18 370.797 230.169 370.683 230.153C370.57 230.138 370.446 230.131 370.314 230.131C369.859 230.131 369.454 230.227 369.098 230.42C368.746 230.61 368.467 230.873 368.263 231.21C368.058 231.547 367.956 231.932 367.956 232.364V238H366.945ZM375.911 238.182C375.096 238.182 374.392 237.992 373.797 237.614C373.202 237.231 372.742 236.703 372.416 236.028C372.094 235.35 371.933 234.57 371.933 233.688C371.933 232.809 372.094 232.028 372.416 231.347C372.742 230.661 373.191 230.125 373.763 229.739C374.339 229.348 375.003 229.153 375.757 229.153C376.231 229.153 376.687 229.241 377.126 229.415C377.566 229.585 377.96 229.848 378.308 230.205C378.661 230.557 378.939 231.002 379.143 231.54C379.348 232.074 379.45 232.706 379.45 233.438V233.938H372.632V233.045H378.416C378.416 232.485 378.303 231.981 378.075 231.534C377.852 231.083 377.539 230.727 377.138 230.466C376.74 230.205 376.28 230.074 375.757 230.074C375.204 230.074 374.717 230.222 374.297 230.517C373.876 230.812 373.547 231.203 373.308 231.688C373.073 232.172 372.954 232.703 372.95 233.278V233.812C372.95 234.506 373.07 235.112 373.308 235.631C373.551 236.146 373.893 236.545 374.337 236.83C374.78 237.114 375.304 237.256 375.911 237.256C376.323 237.256 376.685 237.191 376.996 237.062C377.31 236.934 377.573 236.761 377.786 236.545C378.001 236.326 378.164 236.085 378.274 235.824L379.234 236.136C379.102 236.504 378.884 236.843 378.581 237.153C378.282 237.464 377.907 237.714 377.456 237.903C377.009 238.089 376.494 238.182 375.911 238.182ZM384.116 238.199C383.59 238.199 383.109 238.097 382.673 237.892C382.238 237.684 381.891 237.384 381.634 236.994C381.376 236.6 381.247 236.123 381.247 235.562C381.247 235.131 381.329 234.767 381.491 234.472C381.654 234.176 381.885 233.934 382.185 233.744C382.484 233.555 382.838 233.405 383.247 233.295C383.656 233.186 384.107 233.1 384.599 233.04C385.088 232.979 385.501 232.926 385.838 232.881C386.179 232.835 386.438 232.763 386.616 232.665C386.795 232.566 386.884 232.407 386.884 232.188V231.983C386.884 231.388 386.705 230.92 386.349 230.58C385.997 230.235 385.49 230.062 384.827 230.062C384.198 230.062 383.685 230.201 383.287 230.477C382.893 230.754 382.616 231.08 382.457 231.455L381.497 231.108C381.694 230.631 381.967 230.25 382.315 229.966C382.664 229.678 383.054 229.472 383.486 229.347C383.918 229.218 384.355 229.153 384.798 229.153C385.132 229.153 385.478 229.197 385.838 229.284C386.202 229.371 386.539 229.523 386.849 229.739C387.16 229.951 387.412 230.248 387.605 230.631C387.798 231.009 387.895 231.491 387.895 232.074V238H386.884V236.619H386.821C386.7 236.877 386.52 237.127 386.281 237.369C386.043 237.612 385.743 237.811 385.384 237.966C385.024 238.121 384.601 238.199 384.116 238.199ZM384.253 237.273C384.791 237.273 385.257 237.153 385.651 236.915C386.045 236.676 386.348 236.36 386.56 235.966C386.776 235.568 386.884 235.131 386.884 234.653V233.392C386.808 233.464 386.681 233.528 386.503 233.585C386.329 233.642 386.126 233.693 385.895 233.739C385.668 233.78 385.44 233.816 385.213 233.847C384.986 233.877 384.781 233.903 384.599 233.926C384.107 233.987 383.687 234.081 383.338 234.21C382.99 234.339 382.723 234.517 382.537 234.744C382.351 234.968 382.259 235.256 382.259 235.608C382.259 236.138 382.448 236.549 382.827 236.841C383.205 237.129 383.681 237.273 384.253 237.273ZM393.727 238.182C393.011 238.182 392.384 237.992 391.847 237.614C391.309 237.235 390.888 236.706 390.585 236.028C390.286 235.35 390.136 234.561 390.136 233.659C390.136 232.761 390.286 231.975 390.585 231.301C390.888 230.623 391.311 230.097 391.852 229.722C392.394 229.343 393.025 229.153 393.744 229.153C394.275 229.153 394.716 229.248 395.068 229.438C395.42 229.623 395.703 229.854 395.915 230.131C396.127 230.407 396.292 230.676 396.409 230.938H396.5V226.364H397.517V238H396.528V236.381H396.409C396.292 236.646 396.125 236.919 395.909 237.199C395.693 237.475 395.407 237.708 395.051 237.898C394.699 238.087 394.258 238.182 393.727 238.182ZM393.847 237.256C394.411 237.256 394.892 237.102 395.29 236.795C395.688 236.485 395.991 236.059 396.199 235.517C396.411 234.972 396.517 234.347 396.517 233.642C396.517 232.945 396.413 232.33 396.205 231.795C395.996 231.258 395.693 230.837 395.295 230.534C394.898 230.227 394.415 230.074 393.847 230.074C393.263 230.074 392.771 230.233 392.369 230.551C391.972 230.866 391.669 231.292 391.46 231.83C391.256 232.367 391.153 232.972 391.153 233.642C391.153 234.32 391.258 234.932 391.466 235.477C391.674 236.023 391.977 236.456 392.375 236.778C392.777 237.097 393.267 237.256 393.847 237.256ZM401.102 241.273C400.902 241.273 400.714 241.254 400.54 241.216C400.366 241.178 400.227 241.136 400.125 241.091L400.398 240.199C400.742 240.305 401.049 240.343 401.318 240.312C401.587 240.286 401.826 240.165 402.034 239.949C402.242 239.737 402.428 239.411 402.591 238.972L402.909 238.085L399.699 229.273H400.795L403.386 236.665H403.466L406.057 229.273H407.153L403.46 239.381C403.305 239.801 403.114 240.152 402.886 240.432C402.659 240.716 402.396 240.926 402.097 241.062C401.801 241.203 401.47 241.273 401.102 241.273ZM413.643 238V229.273H414.661V238H413.643ZM414.161 227.773C413.952 227.773 413.774 227.703 413.626 227.562C413.479 227.419 413.405 227.246 413.405 227.045C413.405 226.845 413.479 226.674 413.626 226.534C413.774 226.39 413.952 226.318 414.161 226.318C414.369 226.318 414.547 226.39 414.695 226.534C414.842 226.674 414.916 226.845 414.916 227.045C414.916 227.246 414.842 227.419 414.695 227.562C414.547 227.703 414.369 227.773 414.161 227.773ZM418.347 232.545V238H417.335V229.273H418.318V230.642H418.409C418.614 230.195 418.932 229.837 419.364 229.568C419.799 229.295 420.337 229.159 420.977 229.159C421.564 229.159 422.08 229.282 422.523 229.528C422.97 229.771 423.316 230.129 423.562 230.602C423.812 231.076 423.938 231.657 423.938 232.347V238H422.926V232.409C422.926 231.693 422.725 231.127 422.324 230.71C421.926 230.294 421.392 230.085 420.722 230.085C420.263 230.085 419.856 230.184 419.5 230.381C419.144 230.578 418.862 230.862 418.653 231.233C418.449 231.6 418.347 232.038 418.347 232.545ZM434.936 238.159C434.156 238.159 433.459 238.025 432.845 237.756C432.235 237.487 431.752 237.114 431.396 236.636C431.044 236.155 430.855 235.598 430.828 234.966H432.612C432.635 235.311 432.75 235.61 432.959 235.864C433.171 236.114 433.447 236.307 433.788 236.443C434.129 236.58 434.508 236.648 434.925 236.648C435.383 236.648 435.788 236.568 436.141 236.409C436.497 236.25 436.775 236.028 436.976 235.744C437.177 235.456 437.277 235.125 437.277 234.75C437.277 234.36 437.177 234.017 436.976 233.722C436.779 233.422 436.489 233.187 436.107 233.017C435.728 232.847 435.269 232.761 434.732 232.761H433.749V231.33H434.732C435.163 231.33 435.542 231.252 435.868 231.097C436.197 230.941 436.455 230.725 436.641 230.449C436.826 230.169 436.919 229.841 436.919 229.466C436.919 229.106 436.838 228.794 436.675 228.528C436.516 228.259 436.288 228.049 435.993 227.898C435.701 227.746 435.357 227.67 434.959 227.67C434.58 227.67 434.226 227.741 433.896 227.881C433.571 228.017 433.305 228.214 433.101 228.472C432.896 228.725 432.786 229.03 432.771 229.386H431.072C431.091 228.758 431.277 228.205 431.629 227.727C431.985 227.25 432.455 226.877 433.038 226.608C433.622 226.339 434.269 226.205 434.982 226.205C435.728 226.205 436.372 226.35 436.913 226.642C437.459 226.93 437.879 227.314 438.175 227.795C438.474 228.277 438.622 228.803 438.618 229.375C438.622 230.027 438.44 230.58 438.072 231.034C437.709 231.489 437.224 231.794 436.618 231.949V232.04C437.391 232.157 437.989 232.464 438.413 232.96C438.841 233.456 439.054 234.072 439.05 234.807C439.054 235.447 438.875 236.021 438.516 236.528C438.16 237.036 437.673 237.436 437.055 237.727C436.438 238.015 435.732 238.159 434.936 238.159ZM445.249 238.193C444.351 238.189 443.584 237.953 442.947 237.483C442.311 237.013 441.824 236.33 441.487 235.432C441.15 234.534 440.982 233.453 440.982 232.188C440.982 230.926 441.15 229.848 441.487 228.955C441.828 228.061 442.317 227.379 442.953 226.909C443.593 226.439 444.358 226.205 445.249 226.205C446.139 226.205 446.902 226.441 447.538 226.915C448.175 227.384 448.661 228.066 448.999 228.96C449.339 229.85 449.51 230.926 449.51 232.188C449.51 233.456 449.341 234.54 449.004 235.438C448.667 236.331 448.18 237.015 447.544 237.489C446.908 237.958 446.143 238.193 445.249 238.193ZM445.249 236.676C446.036 236.676 446.652 236.292 447.095 235.523C447.542 234.754 447.766 233.642 447.766 232.188C447.766 231.222 447.663 230.405 447.459 229.739C447.258 229.068 446.968 228.561 446.589 228.216C446.214 227.867 445.768 227.693 445.249 227.693C444.464 227.693 443.849 228.08 443.402 228.852C442.955 229.625 442.73 230.737 442.726 232.188C442.726 233.157 442.826 233.977 443.027 234.648C443.232 235.314 443.521 235.82 443.896 236.165C444.271 236.506 444.722 236.676 445.249 236.676ZM455.783 238V229.273H457.413V230.693H457.521C457.703 230.212 458 229.837 458.413 229.568C458.826 229.295 459.321 229.159 459.896 229.159C460.48 229.159 460.968 229.295 461.362 229.568C461.76 229.841 462.054 230.216 462.243 230.693H462.334C462.542 230.227 462.874 229.856 463.328 229.58C463.783 229.299 464.324 229.159 464.953 229.159C465.745 229.159 466.391 229.407 466.891 229.903C467.394 230.4 467.646 231.148 467.646 232.148V238H465.947V232.307C465.947 231.716 465.786 231.288 465.464 231.023C465.143 230.758 464.758 230.625 464.311 230.625C463.758 230.625 463.328 230.795 463.021 231.136C462.714 231.473 462.561 231.907 462.561 232.438V238H460.868V232.199C460.868 231.725 460.72 231.345 460.425 231.057C460.129 230.769 459.745 230.625 459.271 230.625C458.949 230.625 458.652 230.71 458.379 230.881C458.11 231.047 457.893 231.28 457.726 231.58C457.563 231.879 457.482 232.225 457.482 232.619V238H455.783ZM469.923 238V229.273H471.622V238H469.923ZM470.781 227.926C470.486 227.926 470.232 227.828 470.02 227.631C469.812 227.43 469.707 227.191 469.707 226.915C469.707 226.634 469.812 226.396 470.02 226.199C470.232 225.998 470.486 225.898 470.781 225.898C471.077 225.898 471.329 225.998 471.537 226.199C471.749 226.396 471.855 226.634 471.855 226.915C471.855 227.191 471.749 227.43 471.537 227.631C471.329 227.828 471.077 227.926 470.781 227.926ZM475.607 232.818V238H473.908V229.273H475.538V230.693H475.646C475.847 230.231 476.161 229.86 476.589 229.58C477.021 229.299 477.565 229.159 478.22 229.159C478.815 229.159 479.336 229.284 479.783 229.534C480.23 229.78 480.576 230.148 480.822 230.636C481.069 231.125 481.192 231.729 481.192 232.449V238H479.493V232.653C479.493 232.021 479.328 231.527 478.999 231.17C478.669 230.811 478.216 230.631 477.641 230.631C477.247 230.631 476.896 230.716 476.589 230.886C476.286 231.057 476.046 231.307 475.868 231.636C475.694 231.962 475.607 232.356 475.607 232.818ZM488.999 234.381V229.273H490.703V238H489.033V236.489H488.942C488.741 236.955 488.419 237.343 487.976 237.653C487.536 237.96 486.989 238.114 486.334 238.114C485.773 238.114 485.277 237.991 484.845 237.744C484.417 237.494 484.08 237.125 483.834 236.636C483.591 236.148 483.47 235.544 483.47 234.824V229.273H485.169V234.619C485.169 235.214 485.334 235.687 485.663 236.04C485.993 236.392 486.421 236.568 486.947 236.568C487.266 236.568 487.582 236.489 487.896 236.33C488.214 236.17 488.478 235.93 488.686 235.608C488.898 235.286 489.002 234.877 488.999 234.381ZM497.06 229.273V230.636H492.293V229.273H497.06ZM493.571 227.182H495.27V235.438C495.27 235.767 495.319 236.015 495.418 236.182C495.516 236.345 495.643 236.456 495.798 236.517C495.957 236.574 496.13 236.602 496.315 236.602C496.452 236.602 496.571 236.593 496.673 236.574C496.776 236.555 496.855 236.54 496.912 236.528L497.219 237.932C497.12 237.97 496.98 238.008 496.798 238.045C496.616 238.087 496.389 238.11 496.116 238.114C495.67 238.121 495.253 238.042 494.866 237.875C494.48 237.708 494.168 237.451 493.929 237.102C493.69 236.754 493.571 236.316 493.571 235.79V227.182ZM502.607 238.176C501.747 238.176 501.006 237.992 500.385 237.625C499.768 237.254 499.29 236.733 498.953 236.062C498.62 235.388 498.453 234.598 498.453 233.693C498.453 232.799 498.62 232.011 498.953 231.33C499.29 230.648 499.76 230.116 500.362 229.733C500.968 229.35 501.677 229.159 502.487 229.159C502.98 229.159 503.457 229.241 503.919 229.403C504.381 229.566 504.796 229.822 505.163 230.17C505.531 230.519 505.821 230.972 506.033 231.528C506.245 232.081 506.351 232.754 506.351 233.545V234.148H499.413V232.875H504.686C504.686 232.428 504.595 232.032 504.413 231.688C504.232 231.339 503.976 231.064 503.646 230.864C503.321 230.663 502.938 230.562 502.499 230.562C502.021 230.562 501.605 230.68 501.249 230.915C500.896 231.146 500.624 231.449 500.43 231.824C500.241 232.195 500.146 232.598 500.146 233.034V234.028C500.146 234.612 500.249 235.108 500.453 235.517C500.661 235.926 500.951 236.239 501.322 236.455C501.694 236.667 502.127 236.773 502.624 236.773C502.946 236.773 503.239 236.727 503.504 236.636C503.769 236.542 503.999 236.402 504.192 236.216C504.385 236.03 504.533 235.801 504.635 235.528L506.243 235.818C506.114 236.292 505.883 236.706 505.55 237.062C505.22 237.415 504.805 237.689 504.305 237.886C503.809 238.08 503.243 238.176 502.607 238.176ZM514.776 231.403L513.236 231.676C513.171 231.479 513.069 231.292 512.929 231.114C512.793 230.936 512.607 230.79 512.372 230.676C512.137 230.562 511.844 230.506 511.491 230.506C511.01 230.506 510.609 230.614 510.287 230.83C509.965 231.042 509.804 231.316 509.804 231.653C509.804 231.945 509.912 232.18 510.128 232.358C510.344 232.536 510.692 232.682 511.173 232.795L512.56 233.114C513.363 233.299 513.961 233.585 514.355 233.972C514.749 234.358 514.946 234.86 514.946 235.477C514.946 236 514.795 236.466 514.491 236.875C514.192 237.28 513.774 237.598 513.236 237.83C512.702 238.061 512.082 238.176 511.378 238.176C510.401 238.176 509.603 237.968 508.986 237.551C508.368 237.131 507.99 236.534 507.849 235.761L509.491 235.511C509.594 235.939 509.804 236.263 510.122 236.483C510.44 236.699 510.855 236.807 511.366 236.807C511.923 236.807 512.368 236.691 512.702 236.46C513.035 236.225 513.202 235.939 513.202 235.602C513.202 235.33 513.099 235.1 512.895 234.915C512.694 234.729 512.385 234.589 511.969 234.494L510.491 234.17C509.677 233.985 509.075 233.689 508.685 233.284C508.298 232.879 508.105 232.366 508.105 231.744C508.105 231.229 508.249 230.778 508.537 230.392C508.825 230.006 509.223 229.705 509.73 229.489C510.238 229.269 510.819 229.159 511.474 229.159C512.418 229.159 513.16 229.364 513.702 229.773C514.243 230.178 514.601 230.722 514.776 231.403Z" fill="black"/>
<path d="M679 34L711 63.6907M679 63.6907L711 34" stroke="#FE724D" stroke-width="4" stroke-linecap="round"/>
</g>
<defs>
<filter id="filter0_d_82_4421" x="0" y="0" width="750" height="430" filterUnits="userSpaceOnUse" color-interpolation-filters="sRGB">
<feFlood flood-opacity="0" result="BackgroundImageFix"/>
<feColorMatrix in="SourceAlpha" type="matrix" values="0 0 0 0 0 0 0 0 0 0 0 0 0 0 0 0 0 0 127 0" result="hardAlpha"/>
<feOffset dy="5"/>
<feGaussianBlur stdDeviation="7.5"/>
<feComposite in2="hardAlpha" operator="out"/>
<feColorMatrix type="matrix" values="0 0 0 0 0 0 0 0 0 0 0 0 0 0 0 0 0 0 0.15 0"/>
<feBlend mode="normal" in2="BackgroundImageFix" result="effect1_dropShadow_82_4421"/>
<feBlend mode="normal" in="SourceGraphic" in2="effect1_dropShadow_82_4421" result="shape"/>
</filter>
</defs>
</svg>
